<?xml version="1.0" encoding="utf-8" ?><svg xmlns="http://www.w3.org/2000/svg" xmlns:xlink="http://www.w3.org/1999/xlink" width="1024" height="1024" viewBox="0 0 1024 1024"><path fill="#E8D9F5" d="M0 0L115.565 0L123.501 0L182.664 0L189.763 0L318.722 0L764.81 0L849.68 0L856.274 0L926.441 0L933.904 0L1024 0L1024 336.902L1024 349.358L1024 382.623L1024 450.923L1024 457.885L1024 797.117L1024 910.46L1024 1024L0 1024L0 910.442L0 796.613L0 386.883L0 222.311L0 212.865L0 194.053L0 182.235L0 0Z"/><path fill="#5A2D6F" d="M663.489 910.047L668.815 910.109L726.768 909.984C735.876 909.968 747.24 910.324 756.153 909.916L836.788 910.084C851.314 910.102 866.839 910.44 881.258 910.091C894.052 910.775 909.96 910.186 923.191 910.288L1024 910.46L1024 1024L0 1024L0 910.442L131.442 910.455L361.083 909.973L366.44 909.982L437.651 909.966L440.427 909.947L512.049 909.972L513.926 910.064L563.873 909.929C567.884 909.928 582.255 909.687 585.585 910.337L591.958 910.472C600.28 909.67 613.025 909.987 621.585 909.977C635.37 909.961 649.737 909.762 663.489 910.047Z"/><path fill="#B9BCE6" d="M0 796.613C3.81184 787.966 9.36111 778.464 13.5858 769.354C26.1008 742.756 36.8955 715.382 45.9033 687.401C56.1976 654.769 62.6089 621.068 70.4955 587.813C74.1484 572.41 76.7611 556.458 82.2198 541.513C87.424 527.571 94.3366 514.329 102.799 502.089C128.019 465.653 172.546 427.537 205.613 398.113C233.317 373.727 260.5 348.755 287.143 323.215C287.68 324.022 288.184 324.851 288.654 325.699C303.343 352.694 269.663 393.041 253.147 412.663C246.525 420.678 239.723 428.542 232.746 436.249C230.256 438.957 216.455 453.337 215.721 455.784C212.397 458.361 203.106 465.063 200.99 467.972C190.245 482.75 174.208 511.056 168.283 527.503C165.62 534.932 163.813 542.641 162.897 550.479C159.978 573.545 165.534 617.629 179.24 636.523C179.751 637.439 180.373 638.648 180.948 639.489C182.335 641.263 184.186 643.79 185.735 645.318C202.127 658.784 216.46 664.012 238.027 662.163C256.3 661.016 271.717 652.587 288.224 645.871C312.543 635.976 339.13 626.76 365.735 630.18C372.061 630.628 398.193 638.741 387.182 648.38C375.272 658.805 356.176 661.839 341.683 667.733C336.6 670.007 331.258 672.661 326.411 675.418C302.41 689.065 283.86 709.473 260.497 724.12C242.759 735.241 223.676 741.615 206.009 752.066C163.387 777.278 145.795 817.989 135.186 864.264C131.481 879.212 127.155 894.875 124.025 909.952C126.21 909.958 129.178 909.873 131.291 910.025L131.442 910.455L0 910.442L0 796.613Z"/><path fill="#B9BCE6" d="M819.796 462.783C819.54 458.068 806.309 445.071 802.766 441.429C794.482 432.756 786.285 424.001 778.176 415.164C760.075 395.592 738.904 373.638 734.526 346.182C733.734 341.217 732.813 328.263 739.628 326.713C741.499 326.389 743.289 327.491 744.555 328.738C749.839 333.938 754.81 339.679 760.24 344.711C795.616 377.496 832.728 408.405 867.365 441.985C889.715 463.653 911.793 485.613 928.016 512.436C941.084 533.916 944.642 553.812 949.501 577.706C952.324 592.149 955.34 606.552 958.549 620.914C966.378 654.913 975.492 689.058 988.923 721.354C993.813 733.113 999.017 744.818 1004.18 756.463C1008.46 766.091 1012.99 775.607 1017.77 785C1019.33 788.121 1022.34 794.496 1024 797.117L1024 910.46L923.191 910.288C909.96 910.186 894.052 910.775 881.258 910.091C886.31 909.64 893.208 909.871 898.408 909.9C896.747 900.369 893.523 890.547 891.581 880.995C883.057 839.064 876.236 798.852 842.109 769.14C836.048 763.79 829.495 759.025 822.537 754.908C801.253 742.489 777.181 734.005 756.783 720.049C745.133 712.078 732.833 703.164 722.145 693.985C700.506 675.275 675.795 660.192 647.923 652.864C641.236 651.107 629.085 648.228 633.769 637.883C636.042 632.861 646.824 631.334 651.901 630.779C671.067 628.685 691.143 629.839 709.668 635.381C744.897 646.275 784.955 675.503 822.62 656.074C826.676 653.982 838.513 646.206 839.809 642.268C841.185 642.222 844.939 637.18 845.763 636.009L847.148 633.886C860.011 618.126 865.624 575.497 864.379 555.821C863.786 546.39 861.762 537.104 858.376 528.282C854.838 518.817 828.639 470.964 822.727 465.786C821.668 464.859 820.747 463.818 819.796 462.783Z"/><path fill="#E8D9F5" d="M0 0L115.565 0L123.501 0L182.664 0C188.407 13.7353 189.686 19.4147 193.855 32.9697C199.738 52.3777 197.324 80.8118 187.528 98.8275C167.897 134.934 127.466 141.902 92.6042 155.544C84.0335 158.991 75.5267 162.594 67.0881 166.353C64.0399 167.706 57.136 171.063 54.3159 171.932C46.2491 173.433 20.691 192.656 13.7964 198.84C9.78049 202.442 3.85935 208.632 0 212.865L0 194.053L0 182.235L0 0Z"/><path fill="#5A2D6F" d="M0 0L115.565 0C70.7327 32.4095 62.9764 59.9019 41.2054 107.741C32.1682 127.358 22.0042 146.435 10.7641 164.878C7.564 170.158 3.48206 177.274 0 182.235L0 0Z"/><path fill="#5A2D6F" d="M115.565 0L123.501 0L182.664 0C188.407 13.7353 189.686 19.4147 193.855 32.9697C141.529 33.3394 94.0303 44.6269 71.235 97.3295C60.2137 122.811 57.6572 144.737 54.3159 171.932C46.2491 173.433 20.691 192.656 13.7964 198.84C9.78049 202.442 3.85935 208.632 0 212.865L0 194.053L0 182.235C3.48206 177.274 7.564 170.158 10.7641 164.878C22.0042 146.435 32.1682 127.358 41.2054 107.741C62.9764 59.9019 70.7327 32.4095 115.565 0Z"/><path fill="#7981CF" d="M115.565 0L123.501 0C121.59 4.09792 110.546 10.8975 106.311 14.2406C72.8337 40.6691 59.9733 83.1482 41.9632 120.082C29.5829 145.879 15.51 169.931 0 194.053L0 182.235C3.48206 177.274 7.564 170.158 10.7641 164.878C22.0042 146.435 32.1682 127.358 41.2054 107.741C62.9764 59.9019 70.7327 32.4095 115.565 0Z"/><path fill="white" d="M509.997 618.672L510.383 617.819L512.865 617.919L513.749 618.622C514.065 622.609 513.521 630.96 514.239 633.793L514.175 635.273C514.008 639.951 513.851 647.869 514.128 652.544L550.053 652.523C555.777 652.522 563.838 652.303 569.344 652.599C573.961 653.53 582.245 652.494 585.448 653.658C585.509 658.379 585.852 668.826 585.332 673.251L585.009 673.716C569.183 674.452 552.528 673.624 536.625 673.847C531.122 673.924 521.485 673.459 516.4 674.037L514.755 674.382C513.515 676.518 513.563 691.075 514.518 692.671L515.405 693.65C520.412 694.341 537.912 694.168 543.968 694.021C554.71 693.759 568.826 694.504 579.232 693.937C580.923 693.968 583.781 693.83 585.227 694.455C585.793 697.673 585.503 708.919 585.495 712.691C579.542 712.671 570.856 712.361 565.131 712.678C566.582 713.527 581.03 713.208 584.071 713.547C572.968 714.271 561.368 713.617 550.23 713.786C546.082 713.849 539.312 713.569 535.353 714.081C528.331 714.284 521.099 714.152 514.057 714.103C514.051 717.193 513.841 729.742 514.418 732.101L514.893 733.063L514.425 733.995C513.994 736.767 513.766 750.01 514.443 752.279L514.901 753.1L514.418 753.953C513.757 756.764 514.004 768.277 514.02 771.849C518.736 772.472 531.989 772.103 537.534 772.1L585.63 772.104L585.656 772.638C585.682 775.51 586.203 789.952 585.067 791.335C584.065 791.396 583.039 791.472 582.039 791.518C573.043 793.829 516.153 790.593 513.984 792.824C518.432 793.69 533.149 793.419 538.434 793.425L585.64 793.381C585.645 798.41 585.398 807.293 585.803 812.027L585.374 812.954C585.815 815.95 586.227 829.03 585.173 831.328L584.07 831.818L585.227 832.354L585.32 832.906C576.951 833.378 566.666 833.142 558.175 833.129L514.124 833.043C514.099 836.259 513.816 848.694 514.351 851.076L514.162 852.983C513.878 858.544 514.034 864.383 514.086 869.972C514.671 871.222 514.567 870.585 514.418 871.949C513.718 874.905 513.987 887.065 514.013 890.794C519.112 891.457 530.654 890.993 536.334 891.027C552.565 891.123 568.753 890.555 585.015 891.127L585.354 891.802C585.878 896.24 585.579 905.547 585.585 910.337C582.255 909.687 567.884 909.928 563.873 909.929L513.926 910.064L512.049 909.972L440.427 909.947L437.651 909.966C437.511 905.241 437.28 896.923 437.83 892.355L438.215 891.967C439.087 896.056 437.845 906.047 438.759 908.935C438.997 908.789 439.235 908.643 439.474 908.497C439.764 883.376 439.225 857.136 440.098 832.147C440.355 824.777 439 817.59 440.206 812.71L440.97 813.016C456.769 813.142 472.568 813.185 488.367 813.143C492.389 813.144 508.299 813.384 511.458 812.717C507.155 811.093 475.601 813.584 473.223 811.521C466.986 811.129 457.605 811.272 451.322 811.515L450.688 812.131C447.327 812.432 443.301 812.244 439.87 812.176C440.053 793.166 440.095 774.155 439.994 755.145L439.972 738.51C439.978 736.537 440.001 732.745 440.143 730.823L440.99 731.712C440.89 727.762 440.728 718.209 441.267 714.651C442.381 713.769 444.27 713.965 445.826 713.908C444.348 713.439 443.526 713.415 441.995 713.214L441.643 712.673C440.819 710.577 441.257 697.026 441.291 694.004L440.966 692.577C441.501 689.539 441.181 677.883 441.225 674.026L440.947 672.493C441.308 666.577 441.132 660.279 441.085 654.328C451.212 654.412 464.542 654.658 474.558 654.089C485.576 654.423 500.345 654.443 511.305 653.963L511.082 652.634C512.654 651.038 512.001 638.145 511.804 635.37L512 634.134C511.636 629.91 512.399 624.462 511.49 620.184C511.245 619.032 511.222 619.357 509.997 618.672Z"/><path fill="#8C48B1" d="M439.87 812.176C440.053 793.166 440.095 774.155 439.994 755.145L439.972 738.51C439.978 736.537 440.001 732.745 440.143 730.823L440.99 731.712C444.875 732.443 457.522 732.024 462.313 732.066C478.671 732.211 495.251 731.798 511.615 732.056L511.56 733.524C512.321 736.091 512.308 750.031 511.621 752.295L511.88 753.887C511.976 756.95 512.63 769.229 511.451 771.345L510.139 771.746L511.865 772.19C512.153 772.916 512.21 772.637 512.086 773.015C512.012 778.032 511.697 786.748 512.192 791.536L512.141 793.249C511.896 799.317 511.985 805.407 512.014 811.481C499.366 811.448 485.792 811.188 473.223 811.521C466.986 811.129 457.605 811.272 451.322 811.515L450.688 812.131C447.327 812.432 443.301 812.244 439.87 812.176Z"/><path fill="#8C48B1" d="M511.56 733.524C512.321 736.091 512.308 750.031 511.621 752.295C489.028 751.602 463.671 752.089 440.928 752.103L440.949 733.639C463.085 733.616 489.906 734.449 511.56 733.524Z"/><path fill="#8C48B1" d="M440.762 793.146C464.554 793.34 488.348 793.374 512.141 793.249C511.896 799.317 511.985 805.407 512.014 811.481C499.366 811.448 485.792 811.188 473.223 811.521C466.986 811.129 457.605 811.272 451.322 811.515C448.852 811.294 443.347 811.467 440.65 811.472L440.762 793.146Z"/><path fill="#8C48B1" d="M440.901 753.84L511.88 753.887C511.976 756.95 512.63 769.229 511.451 771.345L510.139 771.746C505.614 771.155 493.185 771.484 487.959 771.487L440.81 771.659L440.901 753.84Z"/><path fill="white" d="M439.87 812.176C440.053 793.166 440.095 774.155 439.994 755.145L439.972 738.51C439.978 736.537 440.001 732.745 440.143 730.823L440.99 731.712C444.875 732.443 457.522 732.024 462.313 732.066C478.671 732.211 495.251 731.798 511.615 732.056L511.56 733.524C489.906 734.449 463.085 733.616 440.949 733.639L440.928 752.103C463.671 752.089 489.028 751.602 511.621 752.295L511.88 753.887L440.901 753.84L440.81 771.659L487.959 771.487C493.185 771.484 505.614 771.155 510.139 771.746L511.865 772.19C512.153 772.916 512.21 772.637 512.086 773.015L440.878 773.311L440.788 791.518L512.192 791.536L512.141 793.249C488.348 793.374 464.554 793.34 440.762 793.146L440.65 811.472C443.347 811.467 448.852 811.294 451.322 811.515L450.688 812.131C447.327 812.432 443.301 812.244 439.87 812.176Z"/><path fill="#5A2D6F" d="M514.128 652.544L550.053 652.523C555.777 652.522 563.838 652.303 569.344 652.599C573.961 653.53 582.245 652.494 585.448 653.658C585.509 658.379 585.852 668.826 585.332 673.251C582.214 672.693 567.193 672.852 562.981 672.835L514.015 672.679C514.004 668.476 513.746 657.621 514.306 654.002L514.128 652.544Z"/><path fill="white" d="M514.128 652.544L550.053 652.523C555.777 652.522 563.838 652.303 569.344 652.599C573.961 653.53 582.245 652.494 585.448 653.658C580.774 654.431 566.837 654.095 561.308 654.089L514.306 654.002L514.128 652.544Z"/><path fill="#8C48B1" d="M441.225 674.026L511.954 674.148C511.984 677.287 512.487 690.38 511.356 692.464L511.527 693.927C488.858 694.474 464.117 694.003 441.291 694.004L440.966 692.577C441.501 689.539 441.181 677.883 441.225 674.026Z"/><path fill="white" d="M440.966 692.577C461.034 691.945 481.402 692.679 501.5 692.369C504.768 692.318 508.088 692.373 511.356 692.464L511.527 693.927C488.858 694.474 464.117 694.003 441.291 694.004L440.966 692.577Z"/><path fill="#5A2D6F" d="M515.405 693.65C520.412 694.341 537.912 694.168 543.968 694.021C554.71 693.759 568.826 694.504 579.232 693.937C580.923 693.968 583.781 693.83 585.227 694.455C585.793 697.673 585.503 708.919 585.495 712.691C579.542 712.671 570.856 712.361 565.131 712.678L514.007 712.537C513.949 707.095 513.819 701.127 514.066 695.689C514.135 694.194 514.359 694.387 515.405 693.65Z"/><path fill="#5A2D6F" d="M514.018 773.141L562.257 773.148C567.13 773.149 581.687 773.44 585.656 772.638C585.682 775.51 586.203 789.952 585.067 791.335C584.065 791.396 583.039 791.472 582.039 791.518L514.02 791.505L514.018 773.141Z"/><path fill="#5A2D6F" d="M585.374 812.954C585.815 815.95 586.227 829.03 585.173 831.328L584.07 831.818C580.592 831.176 565.739 831.406 561.659 831.403L514.067 831.397C514.141 825.231 514.115 819.064 513.988 812.899C517.353 813.365 535.36 813.179 539.542 813.124C554.43 812.929 570.606 813.523 585.374 812.954Z"/><path fill="#8C48B1" d="M441.291 694.004C464.117 694.003 488.858 694.474 511.527 693.927C512.222 697.162 511.991 708.605 511.981 712.516L464.288 712.413C459.814 712.405 445.56 712.106 441.643 712.673C440.819 710.577 441.257 697.026 441.291 694.004Z"/><path fill="#5A2D6F" d="M513.984 792.824C518.432 793.69 533.149 793.419 538.434 793.425L585.64 793.381C585.645 798.41 585.398 807.293 585.803 812.027C582.867 811.131 566.636 811.435 562.66 811.434C548.385 811.38 534.109 811.423 519.835 811.564L514.027 811.492C514.076 805.269 514.062 799.046 513.984 792.824Z"/><path fill="#8C48B1" d="M511.305 653.963C512.497 655.505 511.968 669.561 511.938 672.535C489.114 672.483 463.55 671.87 440.947 672.493C441.308 666.577 441.132 660.279 441.085 654.328C451.212 654.412 464.542 654.658 474.558 654.089C485.576 654.423 500.345 654.443 511.305 653.963Z"/><path fill="#8C48B1" d="M511.458 812.717C512.493 814.737 512.075 828.265 512.045 831.398C488.232 831.109 464.417 831.005 440.603 831.086C440.618 827.484 440.427 815.934 440.97 813.016C456.769 813.142 472.568 813.185 488.367 813.143C492.389 813.144 508.299 813.384 511.458 812.717Z"/><path fill="#8C48B1" d="M445.826 713.908C466.979 714.406 490.777 714.266 511.999 714.022C512.02 717.212 512.305 729.625 511.615 732.056C495.251 731.798 478.671 732.211 462.313 732.066C457.522 732.024 444.875 732.443 440.99 731.712C440.89 727.762 440.728 718.209 441.267 714.651C442.381 713.769 444.27 713.965 445.826 713.908Z"/><path fill="#5A2D6F" d="M585.354 891.802C585.878 896.24 585.579 905.547 585.585 910.337C582.255 909.687 567.884 909.928 563.873 909.929L513.926 910.064C514.13 904.549 513.992 898.031 514.006 892.441L561.072 892.365C566.396 892.356 580.675 892.619 585.354 891.802Z"/><path fill="#8C48B1" d="M440.493 892.156C464.325 892.374 488.157 892.466 511.989 892.432C512.006 898.146 511.905 904.297 512.049 909.972L440.427 909.947L440.493 892.156Z"/><path fill="#8C48B1" d="M440.502 852.955L511.951 852.969C511.992 856.25 512.438 867.887 511.442 870.332L511.881 871.939C512.259 876.516 511.997 885.659 512.004 890.576L440.466 890.504C440.454 885.322 440.229 876.833 440.717 871.964L440.645 870.119C440.251 864.886 440.467 858.298 440.502 852.955Z"/><path fill="#8C48B1" d="M440.502 852.955L511.951 852.969C511.992 856.25 512.438 867.887 511.442 870.332C507.959 869.8 493.648 870.042 489.22 870.041L440.645 870.119C440.251 864.886 440.467 858.298 440.502 852.955Z"/><path fill="white" d="M440.645 870.119L489.22 870.041C493.648 870.042 507.959 869.8 511.442 870.332L511.881 871.939C488.363 872.229 464.255 872.044 440.717 871.964L440.645 870.119Z"/><path fill="#8C48B1" d="M440.677 833.061C464.453 833.188 488.23 833.171 512.006 833.009L512.009 851.095L440.53 851.067L440.677 833.061Z"/><path fill="#8C96D9" d="M830.171 545.648C825.991 533.061 820.183 519.778 811.301 509.776C799.356 496.324 780.781 488.584 765.5 479.473C755.075 473.258 744.699 466.436 734.935 459.226C719.559 447.87 704.288 432.951 701.451 413.114C701.159 411.072 700.618 407.699 702.184 406.035C702.991 405.176 703.994 404.662 705.174 404.585C709.896 404.28 726.967 416.622 732.328 419.641C740.867 424.484 749.671 428.844 758.697 432.702C780.496 441.771 801.178 447.577 819.796 462.783C820.747 463.818 821.668 464.859 822.727 465.786C828.639 470.964 854.838 518.817 858.376 528.282C861.762 537.104 863.786 546.39 864.379 555.821C865.624 575.497 860.011 618.126 847.148 633.886L845.763 636.009C844.939 637.18 841.185 642.222 839.809 642.268C836.996 635.537 835.082 628.074 832.538 621.116C827.371 606.987 821.712 594.071 814.226 581.061C803.116 561.751 782.692 557.714 763.81 548.488C748.748 541.128 733.096 532.98 721.245 520.599C713.923 512.615 705.498 502.13 704.573 490.94C704.364 488.411 706.887 484.417 709.841 485.469C720.028 489.099 729.564 493.973 739.787 497.82C764.991 507.305 793.967 510.535 815.193 528.28C821.04 533.203 825.788 539.514 830.171 545.648Z"/><path fill="#7981CF" d="M845.763 636.009C844.971 633.856 845.579 612.205 845.316 607.382C844.616 594.516 843.498 586.026 840.021 573.318C839.025 569.677 830.818 548.883 830.789 547.718L831.229 548.021C840.052 566.045 845.193 585.647 846.352 605.681C846.884 614.966 846.6 624.499 847.148 633.886L845.763 636.009Z"/><path fill="#8C96D9" d="M215.721 455.784C236.542 444.179 259.12 435.122 280.236 424.326C287.143 420.78 293.894 416.94 300.471 412.816C305.381 409.773 319.053 399.715 322.073 407.856C326.969 421.056 309.944 441.752 302.088 448.643C282.165 466.118 261.725 476.533 239.514 490.146C222.179 500.759 207.154 511.212 200.468 531.278C199.358 534.61 196.293 541.048 196.217 544.387C220.734 507.498 244.744 510.085 282.68 497.039C287.897 495.279 293.043 493.318 298.107 491.159C304.09 488.581 315.837 481.658 321.307 485.968C328.473 491.614 316.67 509.885 312.488 514.295C295.236 532.485 270.859 542.252 248.392 552.245C238.579 556.592 224.471 562.425 217.3 570.023C208.731 579.101 203.544 591.778 198.916 603.162C193.677 616.048 187.706 631.52 185.735 645.318C184.186 643.79 182.335 641.263 180.948 639.489C180.373 638.648 179.751 637.439 179.24 636.523C165.534 617.629 159.978 573.545 162.897 550.479C163.813 542.641 165.62 534.932 168.283 527.503C174.208 511.056 190.245 482.75 200.99 467.972C203.106 465.063 212.397 458.361 215.721 455.784Z"/><path fill="#7981CF" d="M179.122 599.252C181.055 603.5 178.895 626.435 180.589 632.662C180.816 633.496 180.962 638.444 180.948 639.489C180.373 638.648 179.751 637.439 179.24 636.523C178.206 624.123 178.167 611.659 179.122 599.252Z"/><path fill="#5A2D6F" d="M933.904 0L1024 0L1024 336.902C1022.23 334.391 1018.8 327.212 1017.31 324.246C1013.62 316.912 1009.86 309.612 1006.03 302.348C1000.24 291.488 993.17 281.03 987.4 270.065C987.542 265.872 987.557 262.434 987.414 258.243C987.407 243.185 989.643 222.019 990.917 206.676C993.37 177.113 996.026 153.68 976.656 128.488C975.505 126.316 973.915 105.202 973.292 100.675C967.78 60.6323 957.131 32.8274 933.904 0Z"/><path fill="#5A63C9" d="M411.086 437.878C412.888 437.718 414.694 437.599 416.501 437.519C444.682 436.531 472.568 452.687 484.199 478.239C487.075 484.558 491.023 495.443 493.817 500.501C495.015 502.668 507.854 513.771 510.768 516.478C512.068 517.483 511.35 517.247 512.999 517.202L513.66 516.44C519.747 511.085 526.445 505.482 532.086 499.755C533.404 495.052 533.42 490.798 534.95 485.923C533.969 483.882 533.32 481.317 532.666 479.114C534.568 471.334 537.141 469.279 544.641 467.039C561.93 448.851 578.65 440.181 604.231 439.561C605.307 439.536 606.383 439.516 607.459 439.504C605.46 455.983 602.709 469.209 591.74 482.308C575.545 501.649 556.162 503.034 532.3 503.119C526.049 507.71 519.609 515.114 512.958 520.226C512.887 545.797 512.975 571.367 513.222 596.937C516.259 594.169 527.228 584.486 528.767 581.54C536.388 566.95 540.995 549.661 552.415 537.059C567.917 519.952 588.754 513.979 611.475 514.999L612.721 515.06C609.837 531.872 607.273 547.189 595.086 559.964C591.488 563.736 586.704 567.499 583.497 570.99C590.668 571.203 596.372 575.025 596.023 582.836C595.861 586.125 594.327 589.195 591.794 591.3C584.554 597.403 573.245 591.694 573.139 582.782C570.431 582.352 567.946 582.436 565.239 582.643C554.767 584.613 540.942 586.247 530.49 583.294C526.027 587.893 517.355 597.487 512.855 601.063L510.575 601.027C504.602 594.967 498.5 589.037 492.273 583.239C481.884 584.781 470.032 585.715 459.62 583.351C445.395 580.122 429.272 567.237 420.662 555.782C417.665 551.796 413.698 544.365 410.827 539.766C413.481 537.3 414.773 533.7 414.292 530.11C413.812 526.52 411.619 523.386 408.41 521.705C408.454 518.668 408.049 517.525 407.295 514.66C460.819 516.931 473.492 536.76 493.159 580.381C494.13 582.536 508.034 594.729 510.779 596.868C511.12 571.625 510.673 545.856 510.669 520.517C505.503 515.06 497.48 507.592 491.87 502.533C484.154 502.474 476.792 501.958 469.095 501.452C466.43 503.627 464.315 505.236 460.823 505.779C454.847 506.996 452.213 498.539 448.717 496.451C435.741 488.701 425.855 481.448 418.9 467.462C414.106 457.823 412.323 448.863 411.086 437.878Z"/><path fill="#F1CC65" d="M564.638 579.733L563.844 579.359C560.057 577.615 557.129 575.82 555.522 571.635C554.35 568.524 554.545 565.063 556.06 562.104C559.122 556.109 567.205 553.535 573.064 557.254C577.076 559.8 578.131 563.278 579.233 567.608C578.409 570.392 577.993 571.645 576.783 574.357C578.211 574.202 579.229 573.333 580.574 572.525L583.497 570.99C590.668 571.203 596.372 575.025 596.023 582.836C595.861 586.125 594.327 589.195 591.794 591.3C584.554 597.403 573.245 591.694 573.139 582.782C570.431 582.352 567.946 582.436 565.239 582.643L564.638 579.733Z"/><path fill="#6A2543" d="M583.497 570.99C590.668 571.203 596.372 575.025 596.023 582.836C595.861 586.125 594.327 589.195 591.794 591.3C584.554 597.403 573.245 591.694 573.139 582.782C573.923 581.841 574.005 581.104 574.415 579.881C574.592 585.424 577 591.582 583.365 591.842C586.099 591.961 588.764 590.963 590.746 589.076C594.237 585.803 595.837 578.961 591.795 575.312C588.386 572.233 584.88 572.405 580.574 572.525L583.497 570.99Z"/><path fill="#3B38AE" d="M576.662 574.85C575.929 576.765 575.332 578.043 574.415 579.881C574.005 581.104 573.923 581.841 573.139 582.782C570.431 582.352 567.946 582.436 565.239 582.643L564.638 579.733C570.218 581.134 572.935 578.415 576.662 574.85Z"/><path fill="#F1CC65" d="M544.641 467.039C549.568 467.661 552.015 468.125 555.369 472.291C560.118 478.19 558.327 485.669 551.875 489.349C548.269 491.582 543.717 491.607 540.088 489.413C537.918 488.725 536.708 487.414 534.95 485.923C533.969 483.882 533.32 481.317 532.666 479.114C534.568 471.334 537.141 469.279 544.641 467.039Z"/><path fill="#702611" d="M544.641 467.039C549.568 467.661 552.015 468.125 555.369 472.291C560.118 478.19 558.327 485.669 551.875 489.349C556.174 486.686 558.179 481.489 556.781 476.629C555.384 471.769 550.925 468.43 545.868 468.458C540.811 468.485 536.389 471.871 535.044 476.747C533.699 481.622 535.76 486.796 540.088 489.413C537.918 488.725 536.708 487.414 534.95 485.923C533.969 483.882 533.32 481.317 532.666 479.114C534.568 471.334 537.141 469.279 544.641 467.039Z"/><path fill="#F1CC65" d="M456.071 554.868C460.321 553.773 464.831 555.057 467.867 558.226C470.903 561.394 471.993 565.955 470.717 570.154C469.441 574.353 465.998 577.537 461.712 578.481C455.246 579.905 448.831 575.885 447.292 569.445C445.754 563.005 449.66 556.52 456.071 554.868Z"/><path fill="#F1CC65" d="M458.509 478.576C460.758 478.289 462.682 478.135 464.903 478.8C467.904 479.68 470.395 481.783 471.765 484.594C473.256 487.736 473.374 491.357 472.089 494.589C470.429 498.785 467.831 500.446 463.966 502.249C450.93 504.692 442.869 484.829 458.509 478.576Z"/><path fill="#E8D9F5" d="M958.006 235.108C967.983 247.533 979.142 267.755 986.852 281.877C989.423 284.773 991.603 288.948 993.54 292.343C1004.22 311.064 1014 330.268 1024 349.358L1024 382.623L1024 450.923C958.292 406.03 932.146 341.713 949.619 264.022C951.817 254.25 954.09 244.371 958.006 235.108Z"/><path fill="#5A2D6F" d="M986.852 281.877C989.423 284.773 991.603 288.948 993.54 292.343C1004.22 311.064 1014 330.268 1024 349.358L1024 382.623C1017.81 375.215 1013.73 371.761 1008.06 362.957C993.151 339.802 988.468 308.902 986.852 281.877Z"/><path fill="#E8D9F5" d="M854.166 61.7201C876.637 72.2565 895.085 79.2662 918.668 86.6652C934.109 91.5097 959.326 108.024 968.913 120.502C973.538 136.506 971.426 173.534 966.429 189.419C963.145 199.861 958.666 210.766 955.956 221.882C950.031 211.99 940.862 201.121 933.478 192.112C908.284 161.372 874.592 131.566 861.152 93.4052C857.176 82.117 855.977 73.1821 854.166 61.7201Z"/><path fill="#5A2D6F" d="M856.274 0L926.441 0C949.119 30.4353 962.873 63.6796 966.981 101.491C967.449 105.792 969.459 116.992 968.913 120.502C959.326 108.024 934.109 91.5097 918.668 86.6652C895.085 79.2662 876.637 72.2565 854.166 61.7201C853.345 59.8495 853.008 55.0813 852.778 52.8137C850.947 34.7541 851.662 17.6875 856.274 0Z"/><path fill="#7981CF" d="M849.68 0L856.274 0C851.662 17.6875 850.947 34.7541 852.778 52.8137C853.008 55.0813 853.345 59.8495 854.166 61.7201C855.977 73.1821 857.176 82.117 861.152 93.4052C874.592 131.566 908.284 161.372 933.478 192.112C940.862 201.121 950.031 211.99 955.956 221.882C958.666 210.766 963.145 199.861 966.429 189.419C971.426 173.534 973.538 136.506 968.913 120.502C969.459 116.992 967.449 105.792 966.981 101.491C962.873 63.6796 949.119 30.4353 926.441 0L933.904 0C957.131 32.8274 967.78 60.6323 973.292 100.675C973.915 105.202 975.505 126.316 976.656 128.488C996.026 153.68 993.37 177.113 990.917 206.676C989.643 222.019 987.407 243.185 987.414 258.243C987.557 262.434 987.542 265.872 987.4 270.065C993.17 281.03 1000.24 291.488 1006.03 302.348C1009.86 309.612 1013.62 316.912 1017.31 324.246C1018.8 327.212 1022.23 334.391 1024 336.902L1024 349.358C1014 330.268 1004.22 311.064 993.54 292.343C991.603 288.948 989.423 284.773 986.852 281.877C979.142 267.755 967.983 247.533 958.006 235.108C954.09 244.371 951.817 254.25 949.619 264.022C932.146 341.713 958.292 406.03 1024 450.923L1024 457.885C951.512 410.905 923.044 336.209 946.303 253.839C948.556 245.86 950.191 237.605 953.269 229.864C950.108 222.355 936.74 206.274 931.143 199.255C902.69 163.576 866.834 134.715 853.293 89.3514C851.574 83.5932 850.195 78.2879 849.204 72.336C848.625 68.862 848.329 62.9891 847.539 59.8926L847.288 58.9462C845.358 37.5294 845.889 21.1437 849.68 0Z"/><path fill="#E8D9F5" d="M960.023 227.635C962.298 222.148 963.874 216.433 965.834 210.886C972.335 192.819 976.533 174.585 977.434 155.369C977.818 147.176 975.647 136.076 976.656 128.488C996.026 153.68 993.37 177.113 990.917 206.676C989.643 222.019 987.407 243.185 987.414 258.243C987.01 261.471 987.093 265.633 987.066 268.963C979.231 255.42 968.879 240.565 960.023 227.635Z"/><path fill="#5A2D6F" d="M0 222.311C12.5008 207.241 35.9904 186.569 54.2348 178.999C53.0744 185.094 53.0853 193.489 52.7867 199.816C52.3139 211.869 51.6418 223.913 50.7708 235.944C47.1473 282.435 37.6933 317.456 15.7782 358.884C11.7501 366.499 5.03445 380.189 0 386.883L0 222.311Z"/><path fill="#5A63C9" d="M513.654 351.555C516.462 348.763 528.37 337.708 529.373 335.341C532.348 328.318 532.684 319.719 535.975 311.307C546.302 284.908 577.637 269.048 604.9 268.576C604.696 281.033 602.574 295.013 596.38 306.034C583.926 328.195 555.358 339.015 530.913 338.242C528.75 340.247 513.872 353.762 512.858 355.307L510.662 356.103C507.226 351.912 495.951 341.531 491.656 337.373C489.893 337.532 488.128 337.664 486.361 337.768C444.397 340.244 419.494 309.046 417.387 269.279C436.112 269.935 454.699 276.698 468.907 289.041C474.601 293.987 477.948 299.766 482.878 305.249C483.538 305.361 484.199 305.473 484.859 305.585C491.205 308.373 494.913 311.822 495.093 319.189C494.423 324.149 493.527 325.891 490.045 329.293C489.528 334.217 506.226 348.149 510.409 352.021C512.114 352.092 512.017 352.08 513.654 351.555Z"/><path fill="#F1CC65" d="M479.475 306.812C481.217 306.478 483.116 305.991 484.859 305.585C491.205 308.373 494.913 311.822 495.093 319.189C492.954 323.101 492.081 324.579 489.289 328.044C485.437 329.605 483.116 330.498 479.002 328.903C473.831 327.661 470.226 322.983 470.34 317.667C470.454 312.35 474.256 307.832 479.475 306.812Z"/><path fill="#702611" d="M479.475 306.812C481.217 306.478 483.116 305.991 484.859 305.585C491.205 308.373 494.913 311.822 495.093 319.189C492.954 323.101 492.081 324.579 489.289 328.044C485.437 329.605 483.116 330.498 479.002 328.903C483.497 329.984 488.197 328.219 490.87 324.447C493.543 320.675 493.651 315.656 491.142 311.772C488.633 307.889 484.013 305.925 479.475 306.812Z"/><path fill="#F1CC65" d="M552.732 295.813C559.059 294.469 565.284 298.482 566.673 304.799C568.062 311.115 564.094 317.37 557.787 318.803C551.416 320.252 545.085 316.235 543.682 309.854C542.279 303.473 546.341 297.17 552.732 295.813Z"/><path fill="#5A63C9" d="M412.738 350.263C430.405 349.84 442.473 351.873 457.644 361.78C478.395 375.331 486.826 394.427 492.637 417.733C498.993 422.712 504.596 428.675 510.422 433.177C511.95 432.236 511.823 432.261 513.611 432.184C516.352 430.031 527.79 420.207 529.122 417.687C532.018 412.202 534.066 402.97 536.929 396.418C549.868 366.809 574.193 353.564 606.059 353.814C605.293 372.656 601.001 388.511 586.726 401.714C572.019 415.316 550.696 422.38 530.755 420.163C526.332 423.719 517 432.261 512.943 436.41L510.821 437.31C507.413 433.207 496.768 423.753 492.465 420.418C466.925 420.439 451.067 418.466 433.259 398.296C419.437 382.64 416.94 370.109 412.738 350.263Z"/><path fill="#F1CC65" d="M568.596 368.834C572.764 367.941 577.089 369.362 579.916 372.552C582.742 375.742 583.632 380.207 582.244 384.237C580.855 388.267 577.404 391.237 573.213 392.009C566.86 393.18 560.744 389.032 559.482 382.697C558.22 376.361 562.28 370.187 568.596 368.834Z"/><path fill="#F1CC65" d="M463.188 381.331C469.406 380 475.553 383.867 477.043 390.049C478.534 396.231 474.826 402.474 468.684 404.123C463.526 405.507 458.084 403.232 455.447 398.588C452.81 393.944 453.644 388.104 457.476 384.384C459.055 382.85 461.035 381.792 463.188 381.331Z"/><defs><linearGradient id="gradient_0" gradientUnits="userSpaceOnUse" x1="531.729" y1="183.38957" x2="492.76846" y2="261.11298"><stop offset="0" stop-color="#6470C9"/><stop offset="1" stop-color="#4F58CC"/></linearGradient></defs><path fill="url(#gradient_0)" d="M512.003 171.732C514.301 174.038 517.249 177.302 519.227 179.842C530.939 195.122 536.123 214.418 533.646 233.509C531.409 250.617 525.629 259.66 512.442 269.902L512.635 271.506L511.217 271.179L510.695 272.746C509.006 269.814 504.675 265.933 502.192 263.335C484.632 244.956 486.588 213.037 497.379 191.753C501.326 183.968 506.328 178.072 512.003 171.732Z"/><path fill="#F1CC65" d="M507.956 257.335C501.907 256.099 497.765 250.499 498.354 244.353C498.943 238.207 504.074 233.495 510.248 233.431C516.422 233.367 521.649 237.971 522.366 244.103C523.083 250.236 519.058 255.921 513.036 257.282C511.365 257.66 509.634 257.678 507.956 257.335Z"/><path fill="#3B38AE" d="M507.956 257.335C509.634 257.678 511.365 257.66 513.036 257.282C511.834 258.874 512.176 267.714 512.442 269.902L512.635 271.506L511.217 271.179C510.933 267.205 511.573 263.362 510.736 259.564C510.402 258.049 509.404 257.979 507.956 257.335Z"/><path fill="#5A2D6F" d="M535.353 714.081C549.365 714.993 571.288 714.555 585.508 714.411C585.495 718.668 585.224 728.449 585.843 732.281C586.504 728.979 586.305 723.937 586.338 720.442C586.493 723.031 586.755 748.808 586.231 749.491C586.248 745.536 586.509 737.471 585.89 733.878C585.444 737.13 585.161 749.132 585.911 752.108L586.497 751.948C586.34 753.484 586.694 752.967 585.835 753.839L514.418 753.953L514.901 753.1L514.443 752.279C513.766 750.01 513.994 736.767 514.425 733.995L514.893 733.063L514.418 732.101C513.841 729.742 514.051 717.193 514.057 714.103C521.099 714.152 528.331 714.284 535.353 714.081Z"/><path fill="#5A2D6F" d="M535.353 714.081C549.365 714.993 571.288 714.555 585.508 714.411C585.495 718.668 585.224 728.449 585.843 732.281C562.602 732.335 537.581 732.687 514.418 732.101C513.841 729.742 514.051 717.193 514.057 714.103C521.099 714.152 528.331 714.284 535.353 714.081Z"/><path fill="#FAF6FD" d="M585.843 732.281C586.504 728.979 586.305 723.937 586.338 720.442C586.493 723.031 586.755 748.808 586.231 749.491C586.248 745.536 586.509 737.471 585.89 733.878C562.1 734.086 538.2 733.686 514.425 733.995L514.893 733.063L514.418 732.101C537.581 732.687 562.602 732.335 585.843 732.281Z"/><path fill="#FAF6FD" d="M585.911 752.108L586.497 751.948C586.34 753.484 586.694 752.967 585.835 753.839L514.418 753.953L514.901 753.1L514.443 752.279C530.478 752.124 546.514 752.084 562.549 752.159C569.767 752.164 578.812 752.428 585.911 752.108Z"/><path fill="#5A2D6F" d="M189.763 0L318.722 0C309.814 5.836 303.184 8.51286 293.846 12.8458C264.166 26.6184 235.628 30.9687 203.187 32.6437C202.687 32.6392 200.771 32.7328 200.569 32.1074C198.639 26.1189 197.014 20.033 195.054 14.0539C193.511 9.28905 191.745 4.59927 189.763 -7.10543e-15L189.763 0Z"/><path fill="#5A2D6F" d="M764.81 0L849.68 0C845.889 21.1437 845.358 37.5294 847.288 58.9462C812.428 41.4543 793.537 27.0512 764.81 0Z"/><path fill="#7981CF" d="M182.664 0L189.763 0C191.745 4.59927 193.511 9.28905 195.054 14.0539C197.014 20.033 198.639 26.1189 200.569 32.1074C200.771 32.7328 202.687 32.6392 203.187 32.6437L201.256 33.1822C200.66 34.6251 202.547 52.0225 202.607 55.0734C203.467 98.6967 181.789 127.583 142.086 143.525C122.271 151.481 102.061 157.635 82.2575 165.742C72.4397 169.761 63.5323 174.946 54.2348 178.999C35.9904 186.569 12.5008 207.241 0 222.311L0 212.865C3.85935 208.632 9.78049 202.442 13.7964 198.84C20.691 192.656 46.2491 173.433 54.3159 171.932C57.136 171.063 64.0399 167.706 67.0881 166.353C75.5267 162.594 84.0335 158.991 92.6042 155.544C127.466 141.902 167.897 134.934 187.528 98.8275C197.324 80.8118 199.738 52.3777 193.855 32.9697C189.686 19.4147 188.407 13.7353 182.664 0Z"/><path fill="#5A2D6F" d="M663.598 889.915L664.321 889.911C666.266 889.922 666.533 890.256 668.491 889.696L669.674 890.79L669.496 891.338L672.692 891.844C670.818 892.049 669.837 891.773 668.826 892.808C668.353 898.159 668.844 904.634 668.815 910.109L663.489 910.047C649.737 909.762 635.37 909.961 621.585 909.977C613.025 909.987 600.28 909.67 591.958 910.472C592.232 905.232 592.119 897.205 591.955 891.969C591.836 891.564 591.948 891.129 591.996 890.65C596.891 890.117 606.581 890.351 611.847 890.35L647.22 890.372C650.713 890.376 660.793 890.709 663.598 889.915Z"/><defs><linearGradient id="gradient_1" gradientUnits="userSpaceOnUse" x1="616.48932" y1="872.76971" x2="652.24414" y2="920.13806"><stop offset="0" stop-color="#FFF9EA"/><stop offset="1" stop-color="#EAE9ED"/></linearGradient></defs><path fill="url(#gradient_1)" d="M663.598 889.915L664.321 889.911C666.266 889.922 666.533 890.256 668.491 889.696L669.674 890.79L669.496 891.338L672.692 891.844C670.818 892.049 669.837 891.773 668.826 892.808C668.353 898.159 668.844 904.634 668.815 910.109L663.489 910.047L663.484 892.009C639.641 892.139 615.798 892.125 591.955 891.969C591.836 891.564 591.948 891.129 591.996 890.65C596.891 890.117 606.581 890.351 611.847 890.35L647.22 890.372C650.713 890.376 660.793 890.709 663.598 889.915Z"/><path fill="#5A2D6F" d="M663.492 869.949L663.509 871.958C663.485 877.693 663.305 884.247 663.598 889.915C660.793 890.709 650.713 890.376 647.22 890.372L611.847 890.35C606.581 890.351 596.891 890.117 591.996 890.65C592.45 885.733 592.251 877.143 592.261 871.971L592.25 870.057C615.952 869.762 639.777 870.245 663.492 869.949Z"/><path fill="#FAF6FD" d="M663.492 869.949L663.509 871.958L592.261 871.971L592.25 870.057C615.952 869.762 639.777 870.245 663.492 869.949Z"/><path fill="#5A2D6F" d="M516.4 674.037C523.161 674.725 535 674.428 542.213 674.441L585.563 674.47L585.596 692.846L585.508 693.3C583.662 693.471 580.971 693.631 579.232 693.937C568.826 694.504 554.71 693.759 543.968 694.021C537.912 694.168 520.412 694.341 515.405 693.65L514.518 692.671C513.563 691.075 513.515 676.518 514.755 674.382L516.4 674.037Z"/><path fill="white" d="M514.518 692.671C521.832 692.248 581.178 691.675 585.596 692.846L585.508 693.3C583.662 693.471 580.971 693.631 579.232 693.937C568.826 694.504 554.71 693.759 543.968 694.021C537.912 694.168 520.412 694.341 515.405 693.65L514.518 692.671Z"/><path fill="#5A2D6F" d="M514.162 852.983L585.682 852.873C585.684 856.594 585.521 867.024 585.927 870.292L586.171 871.015C585.646 871.248 585.121 871.469 584.608 871.726C579.644 872.321 566.643 871.988 561.276 871.975C545.657 871.872 530.037 871.864 514.418 871.949C514.567 870.585 514.671 871.222 514.086 869.972C514.034 864.383 513.878 858.544 514.162 852.983Z"/><path fill="#FAF6FD" d="M514.086 869.972L562.864 869.921C567.415 869.918 582.257 869.666 585.927 870.292L586.171 871.015C585.646 871.248 585.121 871.469 584.608 871.726C579.644 872.321 566.643 871.988 561.276 871.975C545.657 871.872 530.037 871.864 514.418 871.949C514.567 870.585 514.671 871.222 514.086 869.972Z"/><path fill="#5A2D6F" d="M514.239 633.793C534.682 633.193 558.396 633.281 578.919 633.561C580.712 633.778 583.872 633.979 585.371 634.649C585.468 640.613 585.503 646.578 585.475 652.542C580.682 652.541 574.014 652.365 569.344 652.599C563.838 652.303 555.777 652.522 550.053 652.523L514.128 652.544C513.851 647.869 514.008 639.951 514.175 635.273L514.239 633.793Z"/><path fill="white" d="M514.239 633.793C534.682 633.193 558.396 633.281 578.919 633.561C580.712 633.778 583.872 633.979 585.371 634.649C579.994 635.462 569.681 634.943 563.86 635.075C547.71 635.443 530.22 634.545 514.175 635.273L514.239 633.793Z"/><path fill="#7981CF" d="M361.093 892.346C363.203 891.899 364.944 892.087 367.101 892.069L367.361 892.279C377.744 892.93 391.753 892.515 402.447 892.557C413.146 892.599 427.382 892.973 437.83 892.355C437.28 896.923 437.511 905.241 437.651 909.966L366.44 909.982L361.083 909.973C360.774 905.568 361.068 897.051 361.093 892.346Z"/><path fill="#FAF6FD" d="M361.093 892.346C363.203 891.899 364.944 892.087 367.101 892.069L367.361 892.279C366.159 893.469 366.411 894.6 366.401 896.617L366.44 909.982L361.083 909.973C360.774 905.568 361.068 897.051 361.093 892.346Z"/><path fill="#5A2D6F" d="M514.418 871.949C530.037 871.864 545.657 871.872 561.276 871.975C566.643 871.988 579.644 872.321 584.608 871.726C585.705 872.697 585.655 872.515 585.7 874.548C585.817 879.792 585.698 885.273 585.637 890.514L537.044 890.496C532.414 890.496 517.983 890.209 514.013 890.794C513.987 887.065 513.718 874.905 514.418 871.949Z"/><path fill="#8C48B1" d="M453.282 635.397C472.093 635.629 493.043 635.824 511.804 635.37C512.001 638.145 512.654 651.038 511.082 652.634L511.305 653.963C500.345 654.443 485.576 654.423 474.558 654.089C467.315 653.258 449.798 653.876 441.481 653.744L441.203 653.248C440.859 648.678 441.069 640.277 441.042 635.421C445.122 635.463 449.202 635.455 453.282 635.397Z"/><path fill="white" d="M441.203 653.248C444.169 652.676 459.29 652.809 463.163 652.788L511.082 652.634L511.305 653.963C500.345 654.443 485.576 654.423 474.558 654.089C467.315 653.258 449.798 653.876 441.481 653.744L441.203 653.248Z"/><path fill="#5A2D6F" d="M585.32 832.906C586.327 834.959 585.874 847.786 585.815 850.98C562.37 850.975 537.695 850.601 514.351 851.076C513.816 848.694 514.099 836.259 514.124 833.043L558.175 833.129C566.666 833.142 576.951 833.378 585.32 832.906Z"/><path fill="#8C96D9" d="M668.716 871.905L737.784 871.706L737.785 890.111C728.072 890.458 674.479 889.187 669.674 890.79L668.491 889.696C669.008 884.847 668.718 877.04 668.716 871.905Z"/><path fill="#B9BCE6" d="M291.261 892.444C309.825 892.789 328.504 892.389 347.078 892.588C351.672 892.637 356.536 892.69 361.093 892.346C361.068 897.051 360.774 905.568 361.083 909.973L131.442 910.455L131.291 910.025C145.667 909.628 162.418 910.131 177.034 910.083L291.436 910.001C291.453 904.148 291.395 898.295 291.261 892.444Z"/><path fill="#5A2D6F" d="M514.418 753.953L585.835 753.839C585.264 757.87 585.541 767.134 585.534 771.551L537.761 771.521C533.093 771.52 518.243 771.25 514.02 771.849C514.004 768.277 513.757 756.764 514.418 753.953Z"/><path fill="#8C96D9" d="M672.692 891.844C675.798 892.533 689.449 892.263 693.265 892.251L737.764 892.092C737.731 897.776 737.561 904.103 737.687 909.736C743.007 909.668 751.007 909.36 756.153 909.916C747.24 910.324 735.876 909.968 726.768 909.984L668.815 910.109C668.844 904.634 668.353 898.159 668.826 892.808C669.837 891.773 670.818 892.049 672.692 891.844Z"/><path fill="#5A2D6F" d="M592.241 852.873C615.126 852.348 640.393 852.91 663.443 852.943C663.41 858.612 663.427 864.281 663.492 869.949C639.777 870.245 615.952 869.762 592.25 870.057L592.241 852.873Z"/><path fill="#8C48B1" d="M441.018 618.735C455.551 618.931 470.086 619.031 484.621 619.035C490.456 619.059 504.941 619.434 509.997 618.672C511.222 619.357 511.245 619.032 511.49 620.184C512.399 624.462 511.636 629.91 512 634.134L511.804 635.37C493.043 635.824 472.093 635.629 453.282 635.397C450.944 634.793 444.234 634.841 441.498 634.783L441.142 634.259C440.836 631.136 441.026 622.262 441.018 618.735Z"/><path fill="white" d="M441.142 634.259C445.406 633.563 468.422 633.641 473.791 633.835C484.065 634.206 502.35 633.202 512 634.134L511.804 635.37C493.043 635.824 472.093 635.629 453.282 635.397C450.944 634.793 444.234 634.841 441.498 634.783L441.142 634.259Z"/><path fill="#5A2D6F" d="M514.401 618.979L585.483 618.937L585.44 633.48L578.919 633.561C558.396 633.281 534.682 633.193 514.239 633.793L514.401 618.979Z"/><path fill="#A55413" d="M410.827 539.766C406.669 543.63 400.273 543.758 395.964 540.062C391.656 536.367 390.807 530.026 393.992 525.327C397.178 520.629 403.382 519.07 408.41 521.705C411.619 523.386 413.812 526.52 414.292 530.11C414.773 533.7 413.481 537.3 410.827 539.766Z"/><path fill="#F1CC65" d="M400.985 522.561C414.258 521.324 417.656 534.939 406.733 540.084C402.008 540.372 397.638 539.923 395.081 535.271C393.975 533.303 393.776 530.951 394.536 528.825C395.711 525.538 398.042 524.007 400.985 522.561Z"/><path fill="#5A63C9" d="M511.217 271.179L512.635 271.506C513.281 274.414 513.059 285.679 513.055 289.135C512.994 303.513 513.007 317.89 513.094 332.268C513.142 336.749 513.096 347.782 513.654 351.555C512.017 352.08 512.114 352.092 510.409 352.021C511.024 347.981 510.742 334.692 510.698 330.021L510.465 293.797C510.45 287.46 510.241 278.894 510.695 272.746L511.217 271.179Z"/><path fill="#7981CF" d="M512.858 355.307C513.465 367.652 512.786 381.948 513.007 394.507C513.085 398.902 513.355 414.217 512.958 418.164C513.085 422.477 513.096 427.992 513.611 432.184C511.823 432.261 511.95 432.236 510.422 433.177C510.741 430.677 510.592 424.456 510.597 421.682C510.03 410.493 510.733 396.036 510.458 384.539C510.317 378.647 510.073 361.28 510.662 356.103L512.858 355.307Z"/><path fill="#5A63C9" d="M512.943 436.41C513.118 455.268 513.158 474.127 513.061 492.986C513.08 497.201 513.021 513.256 513.66 516.44L512.999 517.202C511.35 517.247 512.068 517.483 510.768 516.478C511.275 512.402 511.032 501.571 510.998 496.922L510.472 454.674C510.457 450.783 510.22 440.692 510.821 437.31L512.943 436.41Z"/><path fill="#5A63C9" d="M510.575 601.027L512.855 601.063C512.851 605.575 512.587 613.686 512.865 617.919L510.383 617.819C510.724 615.217 510.562 604.23 510.575 601.027Z"/><path fill="#5A2D6F" d="M591.467 772.326C591.191 767.161 591.471 759.135 591.473 753.722L591.526 714.951L591.886 715.222L663.421 714.994C663.43 720.041 663.21 728.005 663.533 732.818L663.141 733.617C661.541 733.798 660.639 733.837 659.018 733.867C660.788 733.948 661.954 733.722 663.289 734.558C663.947 740.288 663.218 746.542 663.571 752.217L663.482 753.938C663.499 757.043 663.751 769.052 663.205 771.494L663.489 771.559L663.313 772.965L663.495 774.01L663.463 791.504L592.044 791.428C591.967 785.259 592.005 779.091 592.157 772.924L591.467 772.326Z"/><path fill="#5A2D6F" d="M592.143 771.571C615.19 771.007 640.057 771.458 663.205 771.494L663.489 771.559L663.313 772.965L663.495 774.01L663.463 791.504L592.044 791.428C591.967 785.259 592.005 779.091 592.157 772.924L591.467 772.326L592.143 771.571Z"/><path fill="white" d="M592.143 771.571C615.19 771.007 640.057 771.458 663.205 771.494L663.489 771.559L663.313 772.965C641.842 773.512 613.598 773.342 592.157 772.924L591.467 772.326L592.143 771.571Z"/><path fill="#5A2D6F" d="M592.116 753.724C600.098 753.45 609.49 753.761 617.628 753.801L663.482 753.938C663.499 757.043 663.751 769.052 663.205 771.494C640.057 771.458 615.19 771.007 592.143 771.571C591.835 766.754 592.103 758.762 592.116 753.724Z"/><path fill="#5A2D6F" d="M591.886 715.222L663.421 714.994C663.43 720.041 663.21 728.005 663.533 732.818C660.203 732.132 645.331 732.33 641.282 732.316L592.091 732.174C592.111 726.826 592.298 720.478 591.886 715.222Z"/><path fill="#FAF6FD" d="M591.467 772.326C591.191 767.161 591.471 759.135 591.473 753.722L591.526 714.951L591.886 715.222C592.298 720.478 592.111 726.826 592.091 732.174L641.282 732.316C645.331 732.33 660.203 732.132 663.533 732.818L663.141 733.617C661.541 733.798 660.639 733.837 659.018 733.867C638.25 734.721 613.335 733.79 592.091 733.949L592.136 752.023C614.817 752.042 641.256 752.802 663.571 752.217L663.482 753.938L617.628 753.801C609.49 753.761 600.098 753.45 592.116 753.724C592.103 758.762 591.835 766.754 592.143 771.571L591.467 772.326Z"/><path fill="#5A2D6F" d="M592.045 793.329L663.494 793.422C663.482 798.541 663.251 806.619 663.629 811.502C663.811 812.618 663.963 812.235 663.596 813.042C663.476 816.718 664.032 829.118 662.918 831.3L661.57 831.863C662.796 832.09 662.211 831.967 663.329 832.229L663.108 832.965C664.14 836.425 663.125 846.776 663.637 851.091L663.851 851.57L663.48 852.239C656.891 852.603 592.883 852.551 591.719 852.022L591.98 851.212C592.49 848.416 592.409 836.117 591.937 833.085L591.544 832.471L591.884 831.513C592.353 828.565 592.107 816.291 591.934 813.078C591.48 812.182 591.574 812.693 591.86 811.523C592.279 806.088 592.063 798.918 592.045 793.329Z"/><path fill="#5A2D6F" d="M591.884 831.513C607.364 831.365 622.846 831.327 638.327 831.399C642.45 831.401 658.31 831.162 661.57 831.863C662.796 832.09 662.211 831.967 663.329 832.229L663.108 832.965C664.14 836.425 663.125 846.776 663.637 851.091L663.851 851.57L663.48 852.239C656.891 852.603 592.883 852.551 591.719 852.022L591.98 851.212C592.49 848.416 592.409 836.117 591.937 833.085L591.544 832.471L591.884 831.513Z"/><path fill="white" d="M591.884 831.513C607.364 831.365 622.846 831.327 638.327 831.399C642.45 831.401 658.31 831.162 661.57 831.863C662.796 832.09 662.211 831.967 663.329 832.229L663.108 832.965C657.825 833.533 645.045 833.211 639.179 833.21L591.937 833.085L591.544 832.471L591.884 831.513Z"/><path fill="white" d="M591.98 851.212C598.678 850.795 606.401 850.837 613.137 850.977C629.828 851.324 647.001 850.479 663.637 851.091L663.851 851.57L663.48 852.239C656.891 852.603 592.883 852.551 591.719 852.022L591.98 851.212Z"/><path fill="#5A2D6F" d="M663.596 813.042C663.476 816.718 664.032 829.118 662.918 831.3L661.57 831.863C658.31 831.162 642.45 831.401 638.327 831.399C622.846 831.327 607.364 831.365 591.884 831.513C592.353 828.565 592.107 816.291 591.934 813.078L663.596 813.042Z"/><path fill="white" d="M591.86 811.523C615.783 811.325 639.706 811.319 663.629 811.502C663.811 812.618 663.963 812.235 663.596 813.042L591.934 813.078C591.48 812.182 591.574 812.693 591.86 811.523Z"/><path fill="#7981CF" d="M437.578 813.271L437.526 812.654C439.219 816.282 438.387 847.477 438.379 854.102C438.371 860.328 439.213 886.48 437.699 890.863C434.912 891.281 367.54 891.136 366.887 890.899L366.621 890.637C366.249 886.1 366.553 876.873 366.573 872.012L414.622 872.096C419.243 872.103 433.788 872.403 437.493 871.583C435.411 868.487 411.58 872.265 407.529 870.19C415.212 869.969 430.986 871.153 437.527 869.893L437.519 852.678C435.367 852.275 410.898 852.264 407.407 852.395C392.957 852.937 375.053 851.589 361.109 852.396L358.382 852.617L360.234 852.001C358.221 850.535 340.615 852.96 338.218 851.038C344.93 850.946 354.544 850.673 361.132 851.11C362.882 851.172 364.957 851.334 366.642 851.062C366.328 846.308 366.583 838.154 366.59 833.149C390.101 833.448 413.614 833.508 437.126 833.328C436.88 832.458 436.96 831.951 436.94 831.012C437.937 828.764 437.551 816.66 437.578 813.271Z"/><path fill="#7981CF" d="M366.59 833.149C390.101 833.448 413.614 833.508 437.126 833.328C437.798 836.948 437.54 846.965 437.518 850.993L390.568 850.85C384.828 850.835 372.053 850.479 366.642 851.062C366.328 846.308 366.583 838.154 366.59 833.149Z"/><path fill="white" d="M437.578 813.271L437.526 812.654C439.219 816.282 438.387 847.477 438.379 854.102C438.371 860.328 439.213 886.48 437.699 890.863C434.912 891.281 367.54 891.136 366.887 890.899L366.621 890.637C370.985 890.072 384.804 890.365 389.532 890.371L437.526 890.452L437.493 871.583C435.411 868.487 411.58 872.265 407.529 870.19C415.212 869.969 430.986 871.153 437.527 869.893L437.519 852.678C435.367 852.275 410.898 852.264 407.407 852.395C392.957 852.937 375.053 851.589 361.109 852.396L358.382 852.617L360.234 852.001C358.221 850.535 340.615 852.96 338.218 851.038C344.93 850.946 354.544 850.673 361.132 851.11C362.882 851.172 364.957 851.334 366.642 851.062C372.053 850.479 384.828 850.835 390.568 850.85L437.518 850.993C437.54 846.965 437.798 836.948 437.126 833.328C436.88 832.458 436.96 831.951 436.94 831.012C437.937 828.764 437.551 816.66 437.578 813.271Z"/><path fill="#7981CF" d="M367.161 734.236L437.863 734.042C438.103 736.967 438.403 758.049 437.64 759.889L437.542 771.527C414.023 771.414 390.503 771.439 366.984 771.601C367.016 765.7 367.09 759.892 366.84 753.992L366.779 751.893C367.319 746.744 367.143 739.554 367.161 734.236Z"/><path fill="#7981CF" d="M366.84 753.992L437.562 753.872L437.64 759.889L437.542 771.527C414.023 771.414 390.503 771.439 366.984 771.601C367.016 765.7 367.09 759.892 366.84 753.992Z"/><path fill="#FAF6FD" d="M437.863 734.042C438.103 736.967 438.403 758.049 437.64 759.889L437.562 753.872L366.84 753.992L366.779 751.893C388.558 750.954 415.593 751.46 437.582 751.642C437.595 746.073 437.364 739.484 437.863 734.042Z"/><path fill="#8C96D9" d="M663.489 771.559C665.013 770.884 667.225 771.241 668.987 771.357L669.645 771.396L671.452 771.782C670.554 771.989 669.753 772.164 668.847 772.329C674.287 772.822 682.253 772.428 687.97 772.384L722.212 772.254C726.064 772.266 734.21 772.114 737.797 772.586C737.964 778.72 737.987 784.858 737.867 790.993L697.266 791.013C691.641 791.036 680.642 790.873 675.436 791.418C679.097 791.856 687.547 791.656 691.37 791.621L718.923 791.354C721.121 791.335 732.483 791.911 733.383 791.763L732.4 791.648C731.452 792.238 720.08 791.998 718.139 791.998L683.585 792.01C681.292 792.028 671.233 792.296 669.973 792.204C664.734 791.82 670.042 777.716 667.037 773.802C665.625 773.383 664.931 773.687 663.495 774.01L663.313 772.965L663.489 771.559Z"/><path fill="white" d="M663.489 771.559C665.013 770.884 667.225 771.241 668.987 771.357L669.645 771.396L671.452 771.782C670.554 771.989 669.753 772.164 668.847 772.329C674.287 772.822 682.253 772.428 687.97 772.384L722.212 772.254C726.064 772.266 734.21 772.114 737.797 772.586C733.945 773.387 719.432 773.093 714.785 773.088L668.484 773.013L668.533 791.35L675.436 791.418C679.097 791.856 687.547 791.656 691.37 791.621L718.923 791.354C721.121 791.335 732.483 791.911 733.383 791.763L732.4 791.648C731.452 792.238 720.08 791.998 718.139 791.998L683.585 792.01C681.292 792.028 671.233 792.296 669.973 792.204C664.734 791.82 670.042 777.716 667.037 773.802C665.625 773.383 664.931 773.687 663.495 774.01L663.313 772.965L663.489 771.559Z"/><path fill="#B9BCE6" d="M291.497 831.141C313.69 832.095 338.575 831.184 360.999 831.183L361.132 851.11C354.544 850.673 344.93 850.946 338.218 851.038C323.4 850.465 306.333 850.864 291.348 850.875L291.497 831.141Z"/><path fill="#B9BCE6" d="M291.449 872.036L361.393 872.08C361.377 878.179 361.322 884.277 361.226 890.375C356.146 890.894 343.601 890.522 338.178 890.512L291.417 890.491C291.534 884.433 291.448 878.114 291.449 872.036Z"/><path fill="#7981CF" d="M367.057 793.484L437.466 793.404L437.44 811.412L366.973 811.436L367.057 793.484Z"/><path fill="#7981CF" d="M367.055 773.569L437.504 773.522L437.469 791.467L367.07 791.488C367.122 785.515 367.118 779.542 367.055 773.569Z"/><path fill="#7981CF" d="M366.841 813.497L413.088 813.54C420.291 813.546 430.64 813.82 437.578 813.271C437.551 816.66 437.937 828.764 436.94 831.012C414.712 830.259 389.114 830.898 366.688 830.946C366.839 825.212 366.805 819.253 366.841 813.497Z"/><path fill="#8C96D9" d="M668.546 833.086C691.512 833.348 714.895 833.128 737.898 833.143C737.915 838.814 738.081 845.218 737.741 850.824C714.673 850.728 691.605 850.749 668.537 850.886L668.546 833.086Z"/><path fill="#8C96D9" d="M668.696 793.526C691.618 793.772 714.99 793.536 737.947 793.517C737.961 799.002 738.169 805.966 737.773 811.329C714.71 811.112 691.647 811.086 668.585 811.251L668.696 793.526Z"/><path fill="#B9BCE6" d="M291.332 852.452C313.26 852.689 336.499 852.972 358.382 852.617L361.109 852.396C361.6 857.272 361.348 864.643 361.309 869.694C340.746 870.697 312.674 869.943 291.502 869.96C291.572 864.124 291.516 858.286 291.332 852.452Z"/><path fill="#8C96D9" d="M668.61 813.161C676.791 813.67 686.489 813.456 694.72 813.459L737.979 813.455L737.882 830.881L668.544 830.706L668.61 813.161Z"/><path fill="#7981CF" d="M366.614 852.854L411.425 852.965C418.663 852.979 430.678 853.301 437.519 852.678L437.527 869.893C434.675 869.254 418.963 869.464 415.47 869.467L366.664 869.532L366.614 852.854Z"/><path fill="#8C96D9" d="M668.615 852.606C691.68 852.785 714.746 852.837 737.812 852.762L737.708 868.921C736.454 869.811 675.645 869.497 668.74 869.507L668.615 852.606Z"/><path fill="#8C96D9" d="M668.556 754.2C691.559 754.546 714.564 754.629 737.569 754.45L737.717 771.211L692.047 771.062C687.345 771.057 673.915 770.801 669.645 771.396L668.987 771.357C668.167 769.108 668.52 757.403 668.556 754.2Z"/><path fill="#A55413" d="M425.591 196.02C432.353 195.709 438.124 200.858 438.584 207.611C439.045 214.364 434.025 220.248 427.284 220.857C422.788 221.264 418.425 219.205 415.88 215.477C413.336 211.75 413.008 206.937 415.023 202.898C417.039 198.859 421.082 196.228 425.591 196.02Z"/><path fill="#F1CC65" d="M425.384 198.57C430.893 198.17 435.68 202.32 436.063 207.83C436.447 213.34 432.282 218.114 426.771 218.481C421.284 218.847 416.535 214.704 416.153 209.217C415.77 203.731 419.899 198.97 425.384 198.57Z"/><path fill="#A55413" d="M374.638 363.877C378.903 363.046 383.284 364.587 386.09 367.904C388.896 371.222 389.688 375.797 388.161 379.865C386.633 383.933 383.026 386.856 378.73 387.508C372.278 388.485 366.228 384.126 365.115 377.696C364.001 371.266 368.233 365.126 374.638 363.877Z"/><path fill="#F1CC65" d="M374.21 366.291C377.568 365.34 381.178 366.269 383.66 368.723C386.142 371.177 387.112 374.776 386.198 378.145C385.284 381.514 382.629 384.13 379.247 384.994C374.112 386.305 368.876 383.246 367.498 378.129C366.12 373.011 369.111 367.736 374.21 366.291Z"/><path fill="#A55413" d="M458.102 128.364C464.453 126.662 470.981 130.435 472.677 136.789C474.372 143.142 470.592 149.666 464.237 151.355C457.891 153.042 451.378 149.268 449.685 142.924C447.992 136.58 451.759 130.063 458.102 128.364Z"/><path fill="#F1CC65" d="M458.692 130.345C463.899 128.957 469.246 132.049 470.641 137.254C472.036 142.459 468.951 147.811 463.748 149.213C458.535 150.618 453.17 147.526 451.773 142.31C450.375 137.095 453.475 131.735 458.692 130.345Z"/><path fill="#943C3B" d="M712.01 556.64C718.357 555.486 724.455 559.639 725.706 565.967C726.958 572.295 722.899 578.457 716.591 579.805C712.423 580.696 708.098 579.272 705.275 576.079C702.452 572.886 701.569 568.419 702.964 564.392C704.36 560.365 707.817 557.402 712.01 556.64Z"/><path fill="#F1CC65" d="M715.541 558.667C717.095 558.605 717.562 558.785 718.88 559.595C721.023 560.9 722.491 563.074 722.901 565.549C723.444 568.553 722.71 571.648 720.874 574.088C718.683 576.949 716.715 577.103 713.393 577.616C710.846 577.198 709.241 576.744 707.247 574.959C705.489 573.392 704.427 571.19 704.295 568.839C703.878 561.938 709.465 558.954 715.541 558.667Z"/><path fill="#F1CC65" d="M664.725 354.16C670.806 352.134 677.382 355.397 679.448 361.464C681.514 367.532 678.294 374.129 672.24 376.234C666.129 378.359 659.458 375.103 657.373 368.979C655.289 362.855 658.588 356.205 664.725 354.16Z"/><path fill="#A55413" d="M333.594 524.065C339.843 523.475 345.39 528.057 345.989 534.305C346.588 540.553 342.013 546.106 335.766 546.714C329.506 547.323 323.94 542.738 323.34 536.477C322.74 530.217 327.333 524.657 333.594 524.065Z"/><path fill="#F1CC65" d="M333.496 526.189C338.497 525.532 343.104 529 343.855 533.989C344.606 538.977 341.224 543.648 336.25 544.492C332.949 545.052 329.603 543.785 327.5 541.18C325.397 538.575 324.865 535.038 326.108 531.929C327.351 528.82 330.176 526.625 333.496 526.189Z"/><path fill="#6A2543" d="M629.274 310.591C639.407 310.655 643.581 316.501 642.322 326.005C639.509 330.112 638.453 331.139 633.708 332.424C617.023 332.753 614.305 313.991 629.274 310.591Z"/><path fill="#F1CC65" d="M629.437 312.147C632.757 311.552 636.139 312.802 638.273 315.413C640.408 318.025 640.96 321.587 639.717 324.723C638.474 327.858 635.63 330.074 632.286 330.513C627.28 331.17 622.665 327.71 621.891 322.721C621.117 317.732 624.467 313.037 629.437 312.147Z"/><path fill="#943C3B" d="M663.992 493.673C668.938 493.794 673.229 497.123 674.574 501.885C675.532 505.28 674.847 508.928 672.722 511.744C670.598 514.56 667.278 516.22 663.751 516.23C659.684 516.242 655.926 514.064 653.914 510.53C651.903 506.996 651.949 502.652 654.036 499.162C656.123 495.672 659.926 493.575 663.992 493.673Z"/><path fill="#F1CC65" d="M662.032 495.543C665.371 494.941 668.773 496.197 670.921 498.822C673.069 501.448 673.624 505.032 672.373 508.184C671.121 511.337 668.259 513.564 664.895 514.002C659.867 514.656 655.234 511.18 654.457 506.169C653.68 501.159 657.042 496.443 662.032 495.543Z"/><path fill="white" d="M645.598 549.497C646.431 549.609 647.26 549.744 648.086 549.902C650.55 550.394 652.643 551.544 653.979 553.733C655.002 555.388 655.276 557.4 654.733 559.268C653.799 562.56 651.844 563.779 649.1 565.428C638.906 566.693 635.016 554.29 645.598 549.497Z"/><path fill="#EAA764" d="M331.045 339.955C333.915 340.052 336.248 341.061 337.55 343.753C338.309 345.294 338.314 347.099 337.563 348.644C336.536 350.724 335.026 351.176 332.999 351.844C324.51 350.759 322.91 344.096 331.045 339.955Z"/><path fill="#E48C22" d="M390.094 582.34C390.821 582.717 391.027 582.957 391.671 583.474C392.641 586.049 392.513 588.562 392.614 591.344C395.257 591.323 398.203 590.851 400.061 592.538L399.582 593.349C397.035 594.61 395.365 594.402 392.515 594.477C392.532 597.536 392.741 600.288 391.986 603.235C390.229 602.921 390.999 603.286 389.642 602.008C388.643 599.667 388.982 597.145 389.047 594.524C386.325 594.415 384.098 594.591 381.843 593.053L382.046 592.224C384.074 591.122 386.531 591.304 388.93 591.212C388.991 587.903 389.112 585.529 390.094 582.34Z"/><path fill="#EAA764" d="M386.719 418.381C394.481 419.445 394.999 427.131 387.883 431.063C379.837 430.557 379.379 422.528 386.719 418.381Z"/><path fill="#E48C22" d="M384.96 271.649C384.8 269.176 383.941 263.955 386.51 262.822C388.637 264.485 388.08 269.362 388.078 271.93L388.027 274.465C388.176 277.087 388.941 282.423 386.517 283.942C384.268 282.091 384.927 277.268 384.998 274.532L380.99 274.502C378.974 274.504 376.385 274.594 375.024 272.887C376.93 270.859 382.301 271.536 384.96 271.649Z"/><path fill="white" d="M369.563 482.173L370.513 482.751C371.275 484.528 371.076 487.271 371.086 489.301C373.619 489.636 375.698 489.17 377.818 490.295L377.943 491.07C376.07 492.47 373.911 492.911 371.638 493.608C371.16 495.034 371.409 497.502 371.447 499.134C369.812 498.812 369.769 498.88 368.342 498.084C368.092 491.219 366.061 494.918 362.224 491.461L362.264 490.65C363.601 489.608 364.507 489.625 366.195 489.328L366.881 489.212C368.7 487.054 367.487 485.355 369.563 482.173Z"/><path fill="#EAA764" d="M400.981 329.036C408.622 329.348 410.087 336.105 403.087 338.974C395.194 338.11 393.684 331.998 400.981 329.036Z"/><path fill="#EAA764" d="M556.178 170.542C563.171 169.678 566.58 175.29 561.193 180.001C553.847 180.793 549.748 175.597 556.178 170.542Z"/><path fill="#E48C22" d="M617.291 223.715L618.648 224.597C619.454 226.814 619.339 229.174 619.417 231.571C621.579 231.468 623.792 231.046 625.491 232.189L625.374 233.018C623.401 234.272 621.447 233.986 619.017 234.02C619.08 237.322 619.908 240.645 617.237 242.712C616.067 240.057 616.388 237.274 616.399 234.317C614.006 234.395 610.892 234.941 609.155 233.065L609.684 232.232C611.882 231.209 614.062 231.523 616.553 231.575C616.534 228.838 616.232 226.152 617.291 223.715Z"/><path fill="white" d="M442.577 240.749C442.965 240.886 443.662 241.286 444.054 241.493C444.784 243.457 444.197 244.176 443.913 246.575C445.423 248.656 446.01 246.354 448.775 248.304L448.945 249.71C447.466 251.246 444.485 250.868 444.379 251.359C444.011 253.061 444.51 254.824 442.929 256.527L441.436 255.043C439.538 247.941 437.395 252.104 435.643 248.899C436.915 247.388 437.956 247.466 439.727 246.632C440.584 243.584 440.167 242.97 442.577 240.749Z"/><path fill="#EAA764" d="M401.06 309.722C403.537 308.75 406.337 309.943 407.35 312.404C408.364 314.864 407.218 317.683 404.775 318.739C403.158 319.437 401.289 319.209 399.888 318.142C398.486 317.074 397.769 315.334 398.012 313.589C398.255 311.844 399.42 310.366 401.06 309.722Z"/><path fill="#EAA764" d="M505.696 85.432C511.698 86.3649 514.589 90.4612 509.131 95.003C502.656 94.7197 500.884 89.3949 505.696 85.432Z"/><path fill="#E48C22" d="M658.403 461.978C657.41 461.149 656.509 461.38 654.913 461.242C653.661 460.247 654.032 460.882 653.831 459.234C655.088 458.069 656.129 458.377 658.257 457.781C658.407 456.248 658.36 455.183 659.141 453.863L660.215 453.658C661.308 455.008 661.152 456.217 661.434 458.157C664.332 458.466 663.926 457.98 665.848 459.515L665.951 460.533C664.307 461.786 664.353 461.48 661.866 461.471L661.524 462.061C661.435 464.586 661.839 464.483 660.657 466.245L659.729 466.227C658.399 464.785 658.557 463.957 658.403 461.978Z"/><path fill="#C26D11" d="M661.434 458.157C664.332 458.466 663.926 457.98 665.848 459.515L665.951 460.533C664.307 461.786 664.353 461.48 661.866 461.471C660.762 460.208 661.097 459.586 661.434 458.157Z"/><path fill="#E48C22" d="M658.403 461.978C659.862 461.311 659.897 461.097 661.524 462.061C661.435 464.586 661.839 464.483 660.657 466.245L659.729 466.227C658.399 464.785 658.557 463.957 658.403 461.978Z"/><path fill="white" d="M639.145 291.163L640.832 291.731C642.536 293.895 645.425 295.908 644.671 298.65L643.776 299.002L641.818 298.005C640.107 299.387 642.239 299.308 639.859 302.586L638.206 301.541C637.799 300.193 637.758 300.14 637.047 298.915C635.634 298.45 634.631 298.296 633.649 297.204C634.798 293.957 636.05 296.236 637.629 294.759C637.905 292.88 637.841 292.594 639.145 291.163Z"/><path fill="#E48C22" d="M608.465 605.619L610.328 606.494C610.743 607.363 610.788 607.624 610.986 608.543L611.184 609.481C612.635 610.057 614.094 610.363 614.834 611.617L614.285 612.231C612.644 612.7 612.245 612.757 610.74 613.669C610.335 615.643 610.411 615.581 609.249 617.19L607.791 616.046C607.562 614.473 607.651 614.125 606.752 612.812C604.245 612.648 603.508 613.127 602.885 610.724C604.131 609.302 604.263 610.502 606.998 609.67C607.471 608.245 607.921 607.018 608.465 605.619Z"/><path fill="#EAA764" d="M668.517 421.646C669.811 421.103 671.298 421.304 672.401 422.172C673.504 423.04 674.049 424.438 673.825 425.824C673.6 427.209 672.642 428.364 671.321 428.839C669.352 429.548 667.176 428.559 666.415 426.609C665.655 424.658 666.587 422.457 668.517 421.646Z"/><path fill="white" d="M305.481 574.255L306.276 574.717C307.057 576.316 307.229 576.915 308.542 578.158C310.292 578.469 309.823 578.15 311.139 579.071C309.159 582.659 308.279 579.077 306.216 584.72C306.062 584.586 305.908 584.451 305.755 584.317C304.992 581.903 302.096 581.462 301.148 579.368C304.58 576.912 304.041 577.878 305.481 574.255Z"/><path fill="#E48C22" d="M412.019 397.762L413.109 398.481C414.3 403.586 414.645 400.366 416.26 402.761C414.419 404.726 413.819 405.188 413.503 407.886C411.246 406.635 409.352 405.518 408.581 403.167C408.948 401.159 410.775 399.62 412.019 397.762Z"/><path fill="#E48C22" d="M339.504 456.842L340.283 457.338L340.34 458.945C341.564 459.879 342.121 460.417 343.218 461.465L342.298 462.547L342.374 460.939L341.973 462.773L342.41 462.381C340.665 463.375 340.293 464.307 339.053 465.814L337.893 465.112C337.214 462.963 336.592 462.859 334.742 461.358L334.779 460.658C337.049 459.569 338.112 458.916 339.504 456.842Z"/><path fill="#EAA764" d="M622.454 406.312C627.516 407.83 626.854 411.171 623.283 414.01C621.84 413.698 622.102 413.724 620.727 413.068C618.468 409.998 620.034 408.562 622.454 406.312Z"/><path fill="#EAA764" d="M534.716 135.939C536.494 135.87 538.008 137.22 538.143 138.995C538.278 140.77 536.985 142.333 535.217 142.534C534.013 142.67 532.831 142.138 532.135 141.146C531.439 140.154 531.341 138.862 531.879 137.776C532.417 136.691 533.505 135.986 534.716 135.939Z"/><path fill="#EAA764" d="M675.056 592.7C676.729 592.315 678.408 593.316 678.864 594.971C679.321 596.625 678.392 598.346 676.759 598.873C675.638 599.234 674.409 598.952 673.558 598.137C672.708 597.323 672.373 596.107 672.685 594.972C672.998 593.836 673.909 592.964 675.056 592.7Z"/><path fill="#E48C22" d="M438.088 593.356C438.994 594.18 440.421 595.824 441.303 596.783C441.219 599.034 439.97 597.12 438.595 601.899C437.305 601.184 435.854 599.803 434.807 598.749C434.894 596.607 436.506 595.35 438.088 593.356Z"/><path fill="#E48C22" d="M345.21 589.331C346.399 590.995 348.465 592.226 348.936 593.435C347.35 594.934 347.13 595.266 346.342 597.299C344.498 596.515 342.431 594.643 342.342 592.519C343.29 591.254 344.118 590.449 345.21 589.331Z"/><path fill="#E48C22" d="M388.078 271.93C391.054 271.771 393.766 271.355 396.545 272.273L397.355 273.022C395.822 274.835 393.182 274.499 390.996 274.479C390.007 274.48 389.017 274.475 388.027 274.465L388.078 271.93Z"/><path fill="#EAA764" d="M564.027 245.75C565.08 245.058 566.491 245.322 567.224 246.348C567.956 247.373 567.748 248.794 566.752 249.566C566.072 250.093 565.158 250.206 564.371 249.86C563.583 249.514 563.048 248.764 562.976 247.907C562.904 247.05 563.307 246.222 564.027 245.75Z"/></svg>