<?xml version="1.0" encoding="utf-8" ?><svg xmlns="http://www.w3.org/2000/svg" xmlns:xlink="http://www.w3.org/1999/xlink" width="1024" height="1024" viewBox="0 0 1024 1024"><path fill="#FAF6FD" d="M0 0L152.083 0L163.388 0L172.661 0L191.937 0L247.659 0L252.408 0L369.521 0L376.968 0L509.972 0L513.335 0L646.238 0L656.798 0L765.851 0L776.834 0L830.615 0L844.412 0L872.955 0L878.306 0L1024 0L1024 43.0557L1024 50.6033L1024 95.3431L1024 107.45L1024 165.835L1024 184.653L1024 322.63L1024 328.988L1024 384.667L1024 446.717L1024 571.888L1024 726.489L1024 731.003L1024 773.29L1024 777.684L1024 853.491L1024 857.491L1024 864.452L1024 868.902L1024 938.909L1024 943.147L1024 1024L0 1024L0 931.16L0 927.105L0 873.689L0 863.033L0 779.361L0 776.487L0 731.15L0 726.718L0 573.922L0 445.907L0 386.625L0 329.539L0 323.083L0 280.681L0 264.352L0 192.318L0 179.717L0 148.918L0 136.847L0 53.3876L0 46.2313L0 0Z"/><path fill="white" d="M238.761 595.648C241.074 584.257 241.819 572.007 244.513 559.615C253.626 517.7 271.04 476.602 297.382 442.62C341.952 384.094 408.115 345.868 481.079 336.485C541.792 329.354 603.132 342.977 655.117 375.139C661.118 378.899 666.534 383.108 672.19 387.295C721.719 423.958 757.478 478.108 773.563 537.464C778.869 557.041 781.093 577.525 783.636 597.748C767.204 611.585 763.072 628.486 758.101 648.093C751.758 676.124 737.687 685.487 709.235 684.017C666.256 681.795 654.535 689.088 633.94 725.909C638.372 726.388 660.666 727.299 664.884 726.665C699.086 726.039 734.304 726.673 768.57 726.718L808.008 726.705C813.184 726.698 822.091 726.384 827.009 726.692C846.738 726.876 867.178 726.51 886.996 726.501L1024 726.489L1024 731.003L1024 773.29L1024 777.684L1024 853.491L1024 857.491L1024 864.452L1024 868.902L1024 938.909L1024 943.147L1024 1024L0 1024L0 931.16L0 927.105L0 873.689L0 863.033L0 779.361L0 776.487L0 731.15L0 726.718L139.357 726.913C150.241 727.332 162.512 727.053 173.48 727.041L234.609 727.022C277.739 727.101 322.793 728.047 365.763 727.03C374.19 727.031 382.616 726.954 391.04 726.799C382.371 713.718 384.209 710.313 371.292 696.46C350.201 673.841 304.373 694.568 284.31 675.936C262.001 655.219 265.757 620.323 238.761 595.648Z"/><path fill="#222D53" d="M0 873.689C4.4043 875.363 15.718 878.356 20.506 879.796C25.5973 881.327 40.9472 887.154 44.8452 887.181C55.814 887.259 67.8245 887.129 78.8753 887.105L151.585 887.072L400.992 887.289L767.419 887.494L879.454 887.604C898.222 887.634 917.111 887.715 935.89 887.637C942.572 887.609 952.734 882.229 959.643 880.247C972.089 876.675 985.18 871.742 998.05 869.987C1006.4 868.848 1015.6 868.932 1024 868.902L1024 938.909L1024 943.147L1024 1024L0 1024L0 931.16L0 927.105L0 873.689Z"/><path fill="#222D53" d="M0 873.689C4.4043 875.363 15.718 878.356 20.506 879.796C25.5973 881.327 40.9472 887.154 44.8452 887.181C55.814 887.259 67.8245 887.129 78.8753 887.105L151.585 887.072L400.992 887.289L767.419 887.494L879.454 887.604C898.222 887.634 917.111 887.715 935.89 887.637C942.572 887.609 952.734 882.229 959.643 880.247C972.089 876.675 985.18 871.742 998.05 869.987C1006.4 868.848 1015.6 868.932 1024 868.902L1024 938.909C1015.45 934.832 992.393 929.855 982.893 928.192C948.62 922.092 914.175 923.627 880.507 932.299C851.974 939.987 825.059 946.777 795.512 947.438C758.374 948.269 729.677 942.016 694.486 930.704C672.46 923.624 646.456 923.214 623.437 923.825C598.683 924.483 575.457 932.422 551.74 938.72C516.273 948.101 477.42 949.283 441.248 943.538C427.392 941.112 414.412 936.053 400.882 932.355C359.531 921.054 313.732 920.7 272.303 931.804C262.298 934.497 252.618 938.339 242.464 940.525C210.576 947.388 174.099 948.514 142.157 941.673C126.361 938.29 111.745 933.465 95.7632 930.401C63.1439 924.149 32.7474 925.077 0 927.105L0 873.689Z"/><path fill="#4B53B8" d="M0 927.105C32.7474 925.077 63.1439 924.149 95.7632 930.401C111.745 933.465 126.361 938.29 142.157 941.673C174.099 948.514 210.576 947.388 242.464 940.525C252.618 938.339 262.298 934.497 272.303 931.804C313.732 920.7 359.531 921.054 400.882 932.355C414.412 936.053 427.392 941.112 441.248 943.538C477.42 949.283 516.273 948.101 551.74 938.72C575.457 932.422 598.683 924.483 623.437 923.825C646.456 923.214 672.46 923.624 694.486 930.704C729.677 942.016 758.374 948.269 795.512 947.438C825.059 946.777 851.974 939.987 880.507 932.299C914.175 923.627 948.62 922.092 982.893 928.192C992.393 929.855 1015.45 934.832 1024 938.909L1024 943.147C1018.82 940.923 1007.37 938.002 1001.93 936.437C965.74 926.018 923.735 925.386 887.165 934.509C855.75 942.347 828.7 951.562 795.602 950.974C774.504 950.6 757.08 950.459 736.024 946.042C720.539 942.794 706.982 938.111 691.789 934.134C673.34 929.296 654.329 926.935 635.256 927.111C620.598 927.136 605.988 928.782 591.692 932.018C573.382 936.245 555.365 942.682 536.633 946.404C511.956 951.308 487.01 950.36 462.046 949.621C435.315 948.829 414.614 939.698 389.374 933.448C371.336 929.04 352.82 926.894 334.252 927.06C315.348 927.045 295.764 929.007 277.546 934.06C264 937.817 251.078 942.32 237.285 945.178C220.58 948.64 203.572 949.822 186.543 949.477C171.996 949.182 154.758 948.224 140.489 944.984C123.669 941.039 107.141 936.129 90.1022 933.099C59.8655 927.721 30.4155 929.034 0 931.16L0 927.105Z"/><path fill="#4B53B8" d="M0 776.487C42.3186 764.423 79.7198 763.274 122.996 772.951C141.783 777.151 157.564 782.625 177.019 785.699C210.254 790.951 235.785 790.55 268.928 785.072L269.556 787.298L272.117 786.683C278.555 784.922 286.709 784.049 293.461 782.337C324.137 774.556 354.463 770.996 386.122 772.913C397.406 773.615 413.709 773.425 424.343 776.276C454.55 784.373 479.599 790.243 511.1 790.087C540.381 789.943 566.061 784.998 594.614 778.121C623.892 772.21 661.079 770.471 690.724 775.126C702.451 776.968 715.593 780.527 727.287 783.322C732.876 784.671 738.522 785.767 744.209 786.607C746.588 786.979 760.062 788.814 760.925 789.44C774.565 789.803 786.644 789.447 800.238 788.928C805.538 789.184 820.036 788.178 826.319 787.941C839.843 787.429 857.256 787.939 870.096 785.838C892.321 782.2 913.106 777.115 935.68 774.732C967.877 771.333 992.498 772.557 1024 777.684L1024 853.491L1024 857.491L1024 864.452L1024 868.902C1015.6 868.932 1006.4 868.848 998.05 869.987C985.18 871.742 972.089 876.675 959.643 880.247C952.734 882.229 942.572 887.609 935.89 887.637C917.111 887.715 898.222 887.634 879.454 887.604L767.419 887.494L400.992 887.289L151.585 887.072L78.8753 887.105C67.8245 887.129 55.814 887.259 44.8452 887.181C40.9472 887.154 25.5973 881.327 20.506 879.796C15.718 878.356 4.4043 875.363 0 873.689L0 863.033L0 779.361L0 776.487Z"/><path fill="#4B53B8" d="M31.8738 861.575C34.3577 862.663 50.8323 864.303 54.7396 864.786C75.3945 867.338 97.2727 867.963 117.928 864.928C134.228 862.532 151.144 857.723 167.37 854.175C185.782 850.13 204.561 847.992 223.41 847.795C239.553 847.779 255.661 849.313 271.511 852.378C285.834 855.041 300.017 858.79 314.334 861.561C347.544 867.988 381.352 867.2 414.516 860.875C427.735 858.354 440.784 855.218 453.993 852.697C465.911 850.523 478.362 850 490.443 849.968C507.175 850.004 524.484 849.416 541.031 852.216C552.511 854.158 564.086 857.532 575.47 860.185C590.118 863.737 605.102 865.729 620.169 866.128C632.803 866.507 645.449 866.038 658.02 864.723C692.686 860.856 726.973 851.077 762.559 851.101C780.074 851.112 796.671 850.91 814.047 854.29C834.168 858.204 852.809 863.856 873.31 865.514C888.753 866.712 904.276 866.415 919.662 864.626C931.732 863.318 940.357 861.459 952.702 861.456L956.011 861.64C974.374 863.585 1005.1 864.227 1024 864.452L1024 868.902C1015.6 868.932 1006.4 868.848 998.05 869.987C985.18 871.742 972.089 876.675 959.643 880.247C952.734 882.229 942.572 887.609 935.89 887.637C917.111 887.715 898.222 887.634 879.454 887.604L767.419 887.494L400.992 887.289L151.585 887.072L78.8753 887.105C67.8245 887.129 55.814 887.259 44.8452 887.181C40.9472 887.154 25.5973 881.327 20.506 879.796C15.718 878.356 4.4043 875.363 0 873.689L0 863.033C6.87789 862.461 14.6111 862.378 21.5769 862.168C25.4991 861.754 27.9507 861.556 31.8738 861.575Z"/><path fill="#C292E0" d="M31.8738 861.575C34.3577 862.663 50.8323 864.303 54.7396 864.786C75.3945 867.338 97.2727 867.963 117.928 864.928C134.228 862.532 151.144 857.723 167.37 854.175C185.782 850.13 204.561 847.992 223.41 847.795C239.553 847.779 255.661 849.313 271.511 852.378C285.834 855.041 300.017 858.79 314.334 861.561C347.544 867.988 381.352 867.2 414.516 860.875C427.735 858.354 440.784 855.218 453.993 852.697C465.911 850.523 478.362 850 490.443 849.968C507.175 850.004 524.484 849.416 541.031 852.216C552.511 854.158 564.086 857.532 575.47 860.185C590.118 863.737 605.102 865.729 620.169 866.128C632.803 866.507 645.449 866.038 658.02 864.723C692.686 860.856 726.973 851.077 762.559 851.101C780.074 851.112 796.671 850.91 814.047 854.29C834.168 858.204 852.809 863.856 873.31 865.514C888.753 866.712 904.276 866.415 919.662 864.626C931.732 863.318 940.357 861.459 952.702 861.456L956.011 861.64C951.886 863.535 936.153 865.457 930.696 866.292C905.834 870.099 875.65 870.776 851.003 865.576C826.449 860.395 810.814 855.461 785.354 854.358C769.723 853.599 754.057 854.057 738.498 855.729C711.794 858.67 684.616 864.909 658.501 867.753C644.316 869.198 630.044 869.607 615.8 868.976C601.703 868.334 587.699 866.355 573.976 863.065C562.404 860.35 551.227 857.129 539.443 854.995C523.995 852.197 508.579 853.501 493.169 852.875C466.997 851.813 445.693 857.705 420.437 862.831C399.455 867.177 378.052 869.16 356.628 868.742C336.799 868.166 320.46 865.73 300.959 861.634C290.896 859.52 279.458 856.567 269.5 854.875C254.494 852.314 239.303 850.997 224.08 850.936C205.113 850.988 186.206 853.059 167.678 857.114C152.072 860.481 136.174 865.106 120.447 867.474C97.5595 870.919 72.9996 870.234 50.1157 867.107C44.7327 866.371 25.2233 864.137 21.5769 862.168C25.4991 861.754 27.9507 861.556 31.8738 861.575Z"/><path fill="#222D53" d="M0 776.487C42.3186 764.423 79.7198 763.274 122.996 772.951C141.783 777.151 157.564 782.625 177.019 785.699C210.254 790.951 235.785 790.55 268.928 785.072L269.556 787.298L272.117 786.683C275.262 788.047 271.949 788.409 277.899 789.264C286.646 790.521 295.684 791.319 304.364 792.746C294.779 795.621 279.321 794.969 269.223 796.961L278.766 798.454C246.225 802.186 213.105 801.123 179.92 808.012C191.396 809.412 209.422 812.136 220.486 815.699C197.662 817.742 174.854 816.75 152 816.143C148.433 816.048 144.851 816.073 141.288 816.269C153.039 818.86 164.056 820.186 175.834 822.131C163.521 823.004 151.193 823.653 138.856 824.075C135.024 824.226 117.398 824.643 114.463 825.542C118.924 826.23 124.194 826.358 128.763 826.708L151.423 828.64C157.555 829.159 171.4 831.021 176.718 830.987L175.521 832.547C152.861 833.654 130.203 833.556 107.548 834.56C103.775 834.728 98.4062 836.344 94.6547 837.198C88.9449 838.491 83.19 839.575 77.4015 840.45C64.0572 842.44 50.3255 843.947 36.8533 844.846C30.6463 845.26 24.1036 844.939 17.9416 845.253C26.0124 847.876 37.6533 848.787 46.3049 849.617C56.3364 850.579 65.5688 851.484 75.5487 853.192C51.519 854.727 38.7743 859.179 13.2713 857.292C19.8419 859.291 27.3916 859.704 32.0297 861.253L31.8738 861.575C27.9507 861.556 25.4991 861.754 21.5769 862.168C14.6111 862.378 6.87789 862.461 0 863.033L0 779.361L0 776.487Z"/><path fill="#4B53B8" d="M0 776.487C42.3186 764.423 79.7198 763.274 122.996 772.951C141.783 777.151 157.564 782.625 177.019 785.699C210.254 790.951 235.785 790.55 268.928 785.072L269.556 787.298C267.177 788.092 263.614 788.605 261.114 789.04C221.409 795.941 180.99 791.843 142.39 780.885C106.859 770.799 70.5406 766.344 33.7768 771.732C22.0009 773.458 11.4826 776.188 0 779.361L0 776.487Z"/><path fill="#222D53" d="M800.238 788.928C805.538 789.184 820.036 788.178 826.319 787.941C839.843 787.429 857.256 787.939 870.096 785.838C892.321 782.2 913.106 777.115 935.68 774.732C967.877 771.333 992.498 772.557 1024 777.684L1024 853.491C1008.31 853.165 994.822 854.439 979.464 854.801C986.082 853.044 990.851 851.707 996.965 848.682C970.731 843.174 951.213 840.186 924.755 836.577C933.973 834.729 953.444 832.576 960.592 830.435C942.669 828.288 924.591 826.004 906.612 824.495C886.527 822.81 864.978 821.891 845.073 818.789C856.778 816.345 875.132 814.139 887.441 812.413C876.78 811.068 862.212 810.879 851.372 810.68C837.65 810.349 823.924 810.212 810.199 810.271C788.411 810.445 777.078 811.361 755.496 807.414C781.318 804.478 803.723 802.6 829.541 800.904L830.135 800.308L830.431 800.542C825.283 798.932 818.137 799.236 813.221 798.249C803.069 796.212 767.617 794.166 760.925 789.44C774.565 789.803 786.644 789.447 800.238 788.928Z"/><path fill="#222D53" d="M944.088 860.958C956.692 858.56 967.224 858.692 979.774 858.074C995.351 857.307 1008.45 857.078 1024 857.491L1024 864.452C1005.1 864.227 974.374 863.585 956.011 861.64L952.702 861.456C950.367 861.017 946.565 861.034 944.088 860.958Z"/><path fill="#5A2D6F" d="M176.718 830.987C178.393 831.145 182.104 831.279 183.362 832.047C180.595 832.628 178.336 832.524 175.521 832.547L176.718 830.987Z"/><path fill="#4B53B8" d="M421.255 730.924C425.617 730.334 434.256 730.711 438.906 730.768C448.825 730.927 458.746 730.988 468.666 730.953C510.13 730.53 551.597 730.44 593.062 730.681C597.572 730.669 626.937 729.689 628.372 730.828L1024 731.003L1024 773.29L1024 777.684C992.498 772.557 967.877 771.333 935.68 774.732C913.106 777.115 892.321 782.2 870.096 785.838C857.256 787.939 839.843 787.429 826.319 787.941C820.036 788.178 805.538 789.184 800.238 788.928C786.644 789.447 774.565 789.803 760.925 789.44C760.062 788.814 746.588 786.979 744.209 786.607C738.522 785.767 732.876 784.671 727.287 783.322C715.593 780.527 702.451 776.968 690.724 775.126C661.079 770.471 623.892 772.21 594.614 778.121C566.061 784.998 540.381 789.943 511.1 790.087C479.599 790.243 454.55 784.373 424.343 776.276C413.709 773.425 397.406 773.615 386.122 772.913C354.463 770.996 324.137 774.556 293.461 782.337C286.709 784.049 278.555 784.922 272.117 786.683L269.556 787.298L268.928 785.072C270.775 784.751 272.38 784.328 274.198 783.867C272.469 783.148 257.377 780.952 254.467 780.481L253.904 778.994C264.22 779.221 279.937 777.6 290.289 776.274C264.822 773.522 237.377 768.885 212.24 766.703C220.95 764.302 233.011 762.372 242.109 760.682L298.037 750.565C328.105 745.06 357.576 737.472 388.031 734.71C391.695 734.271 395.614 733.729 399.274 733.5C402.96 732.675 407.816 732.463 411.195 731.051C414.537 730.885 417.908 730.925 421.255 730.924Z"/><path fill="#222D53" d="M608.287 731.078C614.596 730.718 621.971 730.845 628.372 730.828L1024 731.003L1024 773.29C986.428 768.208 960.448 766.989 922.488 772.958C898.205 776.777 872.368 782.367 847.982 783.808C839.69 784.298 826.972 782.562 818.436 781.612L777.556 776.945C765.32 775.565 738.62 773.248 728.563 769.812C745.304 762.778 761.544 763.623 777.37 760.049L692.917 746.512C675.981 743.759 659.847 741.454 642.841 738.373C634.41 736.697 624.784 734.457 616.43 733.182C613.476 732.542 611.175 731.915 608.287 731.078Z"/><path fill="#9291DF" d="M421.255 730.924C425.617 730.334 434.256 730.711 438.906 730.768C448.825 730.927 458.746 730.988 468.666 730.953C510.13 730.53 551.597 730.44 593.062 730.681C597.572 730.669 626.937 729.689 628.372 730.828C621.971 730.845 614.596 730.718 608.287 731.078C611.175 731.915 613.476 732.542 616.43 733.182C624.784 734.457 634.41 736.697 642.841 738.373C647.375 742.478 652.814 745.414 657.488 749.414C652.654 752.298 648.866 754.752 644.231 757.941C635.723 758.617 625.997 758.46 617.417 758.493L579.493 758.695L442.597 758.955C434.949 758.958 379.298 760.071 377.86 756.845C379.634 754.481 386.442 753.02 389.492 752.187C384.252 752.049 363.381 752.063 359.965 749.928L360.143 748.361C357.739 746.57 346.55 745.044 343.06 744.453C358.725 742.816 374.455 738.344 389.951 735.828L390.374 735.762C389.442 735.392 388.927 735.146 388.031 734.71C391.695 734.271 395.614 733.729 399.274 733.5C402.96 732.675 407.816 732.463 411.195 731.051C414.537 730.885 417.908 730.925 421.255 730.924Z"/><path fill="#E8D9F5" d="M421.255 730.924C425.617 730.334 434.256 730.711 438.906 730.768C448.825 730.927 458.746 730.988 468.666 730.953C510.13 730.53 551.597 730.44 593.062 730.681C597.572 730.669 626.937 729.689 628.372 730.828C621.971 730.845 614.596 730.718 608.287 731.078C611.175 731.915 613.476 732.542 616.43 733.182C614.833 735.325 603.511 734.581 600.376 734.608C612.737 739.371 627.686 742.119 640.235 746.483C615.941 746.925 391.68 748.978 385.264 744.203C387.221 742.03 400.46 738.79 404.056 737.777C406.818 737.72 424.064 733.27 425.668 731.594C424.529 730.747 422.927 730.99 421.255 730.924Z"/><path fill="#C292E0" d="M411.195 731.051C414.537 730.885 417.908 730.925 421.255 730.924C422.927 730.99 424.529 730.747 425.668 731.594C424.064 733.27 406.818 737.72 404.056 737.777L404.351 737.068C407.901 736.033 411.903 735.228 415.547 734.368L415.712 733.845C411.685 733.916 407.368 733.157 403.451 733.858C400.801 734.332 401.68 734.904 399.274 733.5C402.96 732.675 407.816 732.463 411.195 731.051Z"/><path fill="#C292E0" d="M274.198 783.867C309.752 775.728 340.871 767.498 377.969 769.939C392.567 770.9 408.218 769.848 422.827 773.126C453.339 780.372 477.462 787.039 509.157 787.418C523.95 787.519 538.723 786.3 553.299 783.774C578.158 779.402 599.318 772.748 624.971 770.978C649.673 769.274 674.369 768.501 698.852 773.449C715.413 776.796 729.657 781.111 746.646 783.53C767.156 786.45 787.387 785.454 807.43 788.158C805.205 788.384 802.398 788.586 800.238 788.928C786.644 789.447 774.565 789.803 760.925 789.44C760.062 788.814 746.588 786.979 744.209 786.607C738.522 785.767 732.876 784.671 727.287 783.322C715.593 780.527 702.451 776.968 690.724 775.126C661.079 770.471 623.892 772.21 594.614 778.121C566.061 784.998 540.381 789.943 511.1 790.087C479.599 790.243 454.55 784.373 424.343 776.276C413.709 773.425 397.406 773.615 386.122 772.913C354.463 770.996 324.137 774.556 293.461 782.337C286.709 784.049 278.555 784.922 272.117 786.683L269.556 787.298L268.928 785.072C270.775 784.751 272.38 784.328 274.198 783.867Z"/><path fill="#222D53" d="M0 731.15L325.29 731.302C353.738 731.407 382.829 730.622 411.195 731.051C407.816 732.463 402.96 732.675 399.274 733.5C395.614 733.729 391.695 734.271 388.031 734.71C357.576 737.472 328.105 745.06 298.037 750.565L242.109 760.682C233.011 762.372 220.95 764.302 212.24 766.703C237.377 768.885 264.822 773.522 290.289 776.274C279.937 777.6 264.22 779.221 253.904 778.994L254.467 780.481C257.377 780.952 272.469 783.148 274.198 783.867C272.38 784.328 270.775 784.751 268.928 785.072C235.785 790.55 210.254 790.951 177.019 785.699C157.564 782.625 141.783 777.151 122.996 772.951C79.7198 763.274 42.3186 764.423 0 776.487L0 731.15Z"/><path fill="#4B53B8" d="M246.124 779.478C249.049 778.905 250.964 778.992 253.904 778.994L254.467 780.481C251.833 780.081 248.8 779.791 246.124 779.478Z"/><path fill="#9291DF" d="M466.858 598.136C451.392 585.682 441.599 567.52 439.692 547.754C437.59 527.64 443.685 507.527 456.601 491.965C468.188 477.674 484.961 468.551 503.254 466.589C523.67 464.57 542.781 469.749 558.61 482.956C573.801 495.743 583.168 514.137 584.574 533.944C586.689 560.176 575.424 581.21 556.55 598.561C560.317 628.061 564.965 657.414 568.922 686.886C569.473 690.986 570.336 695.349 570.707 699.445C566.799 699.441 560.582 699.635 556.859 699.363C526.735 698.705 495.353 700.289 465.566 699.309L452.786 699.319C457.182 666.344 461.485 630.801 466.858 598.136Z"/><path fill="#FAF6FD" d="M499.169 582.606C499.784 583.561 499.659 583.834 500.637 583.852C508.1 583.986 518.827 584.286 526.035 583.951C529.344 583.917 537.852 584.823 540.306 583.505C542.852 585.768 542.267 587.968 542.331 591.25C546.765 627.017 552.919 663.609 556.859 699.363C526.735 698.705 495.353 700.289 465.566 699.309C467.001 695.809 469.138 674.945 469.95 669.822C474.026 644.099 476.208 616.941 480.373 591.405C480.534 587.31 479.593 586.125 483.032 583.687C484.641 585.453 496.066 584.236 498.602 583.668L499.169 582.606Z"/><path fill="#222D53" d="M466.858 598.136C451.392 585.682 441.599 567.52 439.692 547.754C437.59 527.64 443.685 507.527 456.601 491.965C468.188 477.674 484.961 468.551 503.254 466.589C523.67 464.57 542.781 469.749 558.61 482.956C573.801 495.743 583.168 514.137 584.574 533.944C586.689 560.176 575.424 581.21 556.55 598.561C560.317 628.061 564.965 657.414 568.922 686.886C569.473 690.986 570.336 695.349 570.707 699.445C566.799 699.441 560.582 699.635 556.859 699.363C552.919 663.609 546.765 627.017 542.331 591.25C557.085 580.738 567.145 567.755 570.15 549.619C572.829 533.751 569.017 517.473 559.573 504.443C550.104 491.397 536.775 482.994 520.802 480.52C505.072 478.072 489.018 482.049 476.25 491.557C449.853 511.246 445.505 551.097 465.364 576.76C470.112 582.896 474.67 586.403 480.373 591.405C476.208 616.941 474.026 644.099 469.95 669.822C469.138 674.945 467.001 695.809 465.566 699.309L452.786 699.319C457.182 666.344 461.485 630.801 466.858 598.136Z"/><path fill="white" d="M483.032 583.687C482.215 581.594 479.991 578.199 478.784 575.911C467.903 555.293 478.135 527.592 502.049 520.565C511.221 517.944 521.057 519.062 529.406 523.675C541.779 530.565 549.72 545.272 548.748 559.406C548.12 568.541 544.764 575.698 540.306 583.505C537.852 584.823 529.344 583.917 526.035 583.951C518.827 584.286 508.1 583.986 500.637 583.852C499.659 583.834 499.784 583.561 499.169 582.606L498.602 583.668C496.066 584.236 484.641 585.453 483.032 583.687Z"/><path fill="#E8D9F5" d="M511.308 562.737C506.543 560.548 502.449 558.949 500.202 553.657C497.104 546.367 501.41 539.163 508.661 536.759C515.551 534.475 522.426 540.152 523.705 546.993C524.372 550.443 523.585 554.015 521.531 556.865C519.131 560.235 516.571 561.333 512.936 562.835C523.515 567.292 525.491 572.962 526.035 583.951C518.827 584.286 508.1 583.986 500.637 583.852C499.659 583.834 499.784 583.561 499.169 582.606C499.328 571.86 501.377 567.364 511.308 562.737Z"/><defs><linearGradient id="gradient_0" gradientUnits="userSpaceOnUse" x1="927.87866" y1="-58.413212" x2="604.77075" y2="449.17694"><stop offset="0" stop-color="#9773BF"/><stop offset="1" stop-color="#AD90CB"/></linearGradient></defs><path fill="url(#gradient_0)" d="M509.972 0L513.335 0L646.238 0L656.798 0L765.851 0L776.834 0L830.615 0L844.412 0L872.955 0L878.306 0L1024 0L1024 43.0557L1024 50.6033L1024 95.3431L1024 107.45L1024 165.835L1024 184.653L1024 322.63L1024 328.988L1024 384.667C983.184 400.709 950.442 432.352 933.017 472.596C928.524 482.676 924.748 493.06 921.715 503.67C912.536 537.043 909.647 566.215 871.727 580.954C854.786 587.539 837.093 587.337 819.217 587.439C817.819 565.916 813.902 544.631 807.546 524.02C830.584 516.607 853.475 508.745 876.205 500.438C889.244 495.748 904.691 489.393 917.829 485.501L916.885 484.858C910.237 487.163 898.039 489.902 890.939 491.7L837.254 505.249C827.18 507.798 813.992 510.802 804.407 514.087C801.853 505.871 798.871 497.794 795.473 489.89C794.234 486.962 788.854 475.594 788.446 473.468L787.104 470.99C787.012 470.935 779.281 456.541 778.479 455.165C766.153 434.022 753.165 413.479 736.361 395.574C733.818 392.49 730.291 389.286 728.108 386.231C726.536 385.738 720.699 379.289 718.827 377.663C711.275 371.1 699.794 360.302 691.746 355.139C691.352 354.642 690.864 353.648 690.563 353.095L690.324 353.517C689.237 353.329 675.861 344.397 673.573 342.92C664.212 336.877 654.525 332.349 644.885 326.936C643.21 326.575 643.298 326.281 642.529 324.986L642.005 325.663C639.038 324.869 636.935 323.244 634.269 322.178C629.346 320.209 624.375 318.15 619.446 316.206C610.06 312.506 600.102 309.996 590.383 307.376C587.716 306.596 585.852 306.561 584.597 304.599L584.292 305.383C583.265 305.749 567.899 302.009 565.319 301.539C549.731 298.653 533.932 297.053 518.082 296.755C518.208 283.458 517.308 267.964 516.829 254.547L513.547 171.598C512.9 157.314 512.46 143.021 512.225 128.725C512.094 121.607 512.254 109.282 511.57 102.533C513.075 102.119 515.884 100.81 516.295 99.0445C516.952 94.5753 517.438 88.5004 516.997 83.9908C516.208 75.9268 519.746 68.6882 511.138 65.0859L510.934 64.5887C510.302 61.289 510.476 43.7538 510.521 39.3849C510.659 26.1053 510.162 13.2357 509.972 0Z"/><path fill="white" d="M765.851 0L776.834 0L830.615 0C825.718 7.2109 822.088 10.707 815.223 15.7946C811.423 18.9591 797.869 24.1921 795.945 28.4617C791.944 37.3449 793.415 50.0408 792.389 59.7021C790.017 82.0363 774.929 105.039 752.167 110.404C748.88 111.178 742.897 110.508 740.474 113.212C740.115 113.696 738.7 116.236 738.131 117.087C739.255 119.734 739.7 120.003 741.761 122.002C739.028 128.839 728.668 165.2 715.998 160.215C703.795 155.414 703.775 132.23 708.018 121.506C712.593 109.943 718.125 101.007 730.08 95.0988C718.404 68.7804 721.159 38.1444 748.377 22.5696C751.496 20.7848 754.64 19.3219 757.886 17.7854C760.893 12.5515 763.624 5.63206 765.851 0Z"/><path fill="#C292E0" d="M776.834 0L830.615 0C825.718 7.2109 822.088 10.707 815.223 15.7946C811.423 18.9591 797.869 24.1921 795.945 28.4617C791.944 37.3449 793.415 50.0408 792.389 59.7021C790.017 82.0363 774.929 105.039 752.167 110.404C748.88 111.178 742.897 110.508 740.474 113.212C740.115 113.696 738.7 116.236 738.131 117.087L737.311 116.723C730.402 119.48 723.997 149.904 717.691 149.426C713.003 144.07 715.26 130.328 717.295 123.9C725.603 97.6542 753.074 104.067 765.888 81.4365C773.179 68.5608 776.823 55.8918 773.237 40.9693C771.647 34.3196 769.157 28.3401 767.618 21.4643C770.281 16.0889 775.103 5.5206 776.834 0Z"/><path fill="#C292E0" d="M758.477 28.056C759.19 28.9735 759.591 29.8886 759.974 30.9806C765.174 45.8048 767.57 55.9956 760.312 70.6638C755.222 80.9486 750.29 87.4422 739.34 91.4454C727.246 64.3993 730.756 42.1338 758.477 28.056Z"/><path fill="white" d="M911.419 285.592C908.612 284.936 904.838 283.276 904.623 280.037C904.281 274.874 908.863 267.64 911.225 263.097C919.561 247.421 931.122 234.664 947.775 227.827C957.176 223.967 972.585 223.734 980.506 218.199C987.669 213.194 984.641 199.905 990.783 191.397C999.05 179.946 1007.92 180.778 1018.53 173.184C1019.64 172.358 1023 167.3 1024 165.835L1024 184.653C1020.01 186.263 1011.33 189.597 1008.09 191.628C1006.92 197.348 1001.4 207.322 997.351 211.614C996.212 216.289 995.258 218.311 993.259 222.707C989.593 227.173 983.787 230.624 978.261 232.171C944.444 238.909 932.831 243.599 917.84 276.64C916.317 281.086 915.574 282.951 911.419 285.592Z"/><path fill="#4B53B8" d="M1008.09 191.628C1006.92 197.348 1001.4 207.322 997.351 211.614C998.187 202.051 999.227 196.92 1008.09 191.628Z"/><path fill="#4B53B8" d="M830.615 0L844.412 0C840.072 9.48041 829.305 21.6894 820.48 26.6991C804.497 35.7719 804.501 33.1395 804.704 53.2745C805.02 84.6288 783.208 118.496 750.045 122.122C746.879 122.491 744.924 122.555 741.761 122.002C739.7 120.003 739.255 119.734 738.131 117.087C738.7 116.236 740.115 113.696 740.474 113.212C742.897 110.508 748.88 111.178 752.167 110.404C774.929 105.039 790.017 82.0363 792.389 59.7021C793.415 50.0408 791.944 37.3449 795.945 28.4617C797.869 24.1921 811.423 18.9591 815.223 15.7946C822.088 10.707 825.718 7.2109 830.615 0Z"/><path fill="white" d="M646.238 0L656.798 0C652.338 17.7288 648.923 35.7936 645.222 53.7019L632.166 115.602C630.381 124.202 618.749 185.425 616.228 188.946C615.5 189.963 614.351 190.394 613.136 190.532C611.999 190.662 610.772 190.384 610.079 189.411C608.578 187.303 608.997 183.349 609.311 180.939C610.155 174.462 611.76 167.973 613.098 161.578L619.545 130.253L646.238 0Z"/><path fill="white" d="M1024 43.0557L1024 50.6033C1014.34 63.1174 1003.8 75.6792 993.849 88.0567L947.815 145.322C935.659 160.196 922.902 177.283 910.293 191.559C912.848 194 915.696 197.098 913.37 200.721C909.478 206.785 903.702 212.894 898.843 218.195C890.35 227.462 882.439 237.056 873.854 246.186C869.635 250.675 864.146 249.9 862.647 243.715C861.812 239.68 868.964 231.706 871.219 228.479C875.694 222.589 880.603 216.448 885.218 210.613C890.085 204.606 894.624 198.126 900.936 193.639C902.895 192.242 904.953 191.751 907.242 191.455C930.35 161.346 953.677 131.406 977.221 101.636C992.395 82.5672 1009.41 62.3296 1024 43.0557Z"/><path fill="#4B53B8" d="M1024 107.45C1019.11 109.788 1015.65 111.205 1011.25 114.543C1003.08 120.804 997.679 130.02 996.219 140.214C995.689 143.691 995.555 148.643 995.054 151.984C993.553 167.134 981.948 170.313 971.901 178.039C969.329 180.016 968.693 190.241 960.547 187.786C959.066 187.34 956.635 184.735 956.461 183.333C954.854 170.384 972.82 164.083 980.148 156.653C983.889 152.75 983.03 142.438 983.925 137.077C984.717 132.225 986.257 127.526 988.491 123.148C996.61 107.138 1007.82 100.747 1024 95.3431L1024 107.45Z"/><path fill="#C292E0" d="M917.84 276.64C932.831 243.599 944.444 238.909 978.261 232.171C976.452 236.594 975.213 241.059 973.339 245.49C965.399 264.266 945.238 275.065 925.601 276.662C923.468 276.836 919.805 277.173 917.84 276.64Z"/><path fill="#FAF6FD" d="M840.099 273.312L840.51 274.104C818.102 300.014 796.512 326.301 774.467 352.521C762.1 367.232 748.384 381.178 736.361 395.574C733.818 392.49 730.291 389.286 728.108 386.231C749.684 362.752 771.999 339.962 795.02 317.898C809.904 303.354 826.197 288.539 840.099 273.312Z"/><path fill="#4B53B8" d="M993.259 222.707C992.859 227.127 991.125 231.546 989.905 235.935C985.751 250.891 979.521 262.562 967.249 272.737C954.172 283.579 934.93 289.099 917.959 289.405C914.98 289.459 912.747 288.29 911.419 285.592C915.574 282.951 916.317 281.086 917.84 276.64C919.805 277.173 923.468 276.836 925.601 276.662C945.238 275.065 965.399 264.266 973.339 245.49C975.213 241.059 976.452 236.594 978.261 232.171C983.787 230.624 989.593 227.173 993.259 222.707Z"/><path fill="white" d="M872.955 0L878.306 0C874.578 8.9799 869.95 17.5479 865.803 26.3334C858.326 42.1754 851.017 58.0969 843.534 73.9363C841.685 77.8503 839.835 81.7671 838.428 85.8667C840.825 89.6712 844.598 95.3286 841.765 99.8006C839.751 103.274 829.807 117.799 824.715 113.043C819.733 108.391 824.61 97.0397 822.989 89.6094C826.858 87.8643 829.796 86.503 833.481 84.4327L872.955 0Z"/><path fill="white" d="M1024 328.988C1004.63 341.122 985.16 353.108 965.602 364.943C960.097 368.26 943.066 380.261 938.4 379.261C937.052 377.979 937.419 378.732 937.168 376.972C938.551 373.967 964.03 359.836 968.601 357.062C987.145 345.71 1005.61 334.232 1024 322.63L1024 328.988Z"/><path fill="white" d="M787.104 470.99C790.357 466.086 810.511 458.257 810.886 455.423C811.156 453.388 811.154 452.094 812.849 450.75C814.254 449.636 827.232 441.772 828.482 441.293C830.04 440.696 831.872 440.422 833.526 440.687C834.958 440.916 836.05 441.431 836.896 442.65C837.488 443.504 837.534 444.555 837.225 445.543C835.478 451.121 823.875 457.227 818.792 459.527C817.427 460.145 816.238 460.63 814.74 460.736C813.236 459.968 812.737 459.671 811.343 458.716C802.541 464.038 799.095 467.882 788.446 473.468L787.104 470.99Z"/><path fill="white" d="M690.563 353.095C692.378 347.651 711.875 311.22 717.223 312.281C718.948 316.486 695.456 351.474 691.746 355.139C691.352 354.642 690.864 353.648 690.563 353.095Z"/><path fill="white" d="M642.529 324.986C646.812 312.576 650.669 304.253 657.842 293.149C658.953 308.904 650.536 313.482 644.885 326.936C643.21 326.575 643.298 326.281 642.529 324.986Z"/><defs><linearGradient id="gradient_1" gradientUnits="userSpaceOnUse" x1="508.32874" y1="29.732931" x2="514.65753" y2="29.124088"><stop offset="0" stop-color="#DECDD5"/><stop offset="1" stop-color="white"/></linearGradient></defs><path fill="url(#gradient_1)" d="M509.972 0L513.335 0C511.693 12.0153 512.546 17.1744 511.9 28.2252C511.024 32.7854 511.263 43.799 511.348 48.6029C511.451 54.4521 511.171 58.7977 510.934 64.5887C510.302 61.289 510.476 43.7538 510.521 39.3849C510.659 26.1053 510.162 13.2357 509.972 0Z"/><path fill="#FAF6FD" d="M591.716 285.944C591.643 293.969 591.747 299.462 590.383 307.376C587.716 306.596 585.852 306.561 584.597 304.599C586.49 297.442 587.753 292.338 591.716 285.944Z"/><path fill="#E8D9F5" d="M510.934 64.5887C511.171 58.7977 511.451 54.4521 511.348 48.6029C511.263 43.799 511.024 32.7854 511.9 28.2252C511.89 37.3055 511.906 46.379 511.968 55.459C511.984 57.8398 512.466 63.3898 511.138 65.0859L510.934 64.5887Z"/><path fill="#C292E0" d="M840.099 273.312C841.306 271.592 841.527 271.322 843.056 269.901L843.789 269.811C843.312 271.495 841.771 272.791 840.51 274.104L840.099 273.312Z"/><path fill="#C292E0" d="M916.885 484.858C918.827 484.284 921.121 483.391 923.071 483.581C921.226 484.653 919.878 484.919 917.829 485.501L916.885 484.858Z"/><path fill="white" d="M571.21 12.3473C573.403 14.4142 575.89 27.0663 577.431 31.014C581.845 42.3263 584.605 45.2223 595.098 50.3198C572.418 65.6367 578.691 85.9826 572.632 90.7932C567.918 79.9976 567.387 66.039 558.623 58.6788C555.859 56.3575 550.734 53.4479 547.574 51.5749C550.371 49.9084 553.564 48.2638 556.131 46.3476C566.947 38.2754 566.889 24.8558 570.994 12.9579L571.21 12.3473Z"/><path fill="#4B53B8" d="M680.309 238.552C685.99 238.99 687.881 241.819 689.764 246.928C687.723 256.251 677.444 276.214 673.668 285.913C672.146 289.824 669.872 292.64 665.81 293.984C658.007 293.394 654.947 288.395 657.613 280.944C661.178 271.332 665.319 261.86 669.263 252.376C672.164 245.4 672.636 240.631 680.309 238.552Z"/><path fill="#4B53B8" d="M606.122 202.962C610.361 203.169 614.286 205.492 613.536 209.829C610.394 227.998 606.227 247.938 603.072 265.972C601.024 268.188 600.166 268.637 597.411 269.809C592.49 269.189 591.568 267.329 589.221 263.102C589.519 260.255 590.283 257.194 590.94 254.382C594.595 238.723 597.216 222.784 600.957 207.17C601.507 204.873 604.184 203.83 606.122 202.962Z"/><path fill="white" d="M899.348 397.021C899.997 396.911 900.621 396.837 901.281 396.862C903.195 396.936 904.765 397.558 906.008 399.056C907.245 400.545 908.148 403.037 907.718 404.979C906.567 410.17 874.528 428.385 868.471 431.339C867.145 431.762 865.161 432.377 863.755 432.045C862.497 431.745 861.428 430.92 860.82 429.778C858.885 426.089 862.363 420.719 865.217 418.792C875.086 412.129 888.751 401.719 899.348 397.021Z"/><path fill="#4B53B8" d="M859.873 341.615C863.067 341.685 865.542 342.527 866.497 346.024C869.546 357.2 845.57 371.799 837.074 374.457C824.357 375.277 830.282 362.992 836.384 358.173C843.749 352.357 850.276 343.773 859.873 341.615Z"/><path fill="white" d="M916.972 291.402C919.516 291.337 921.681 290.975 923.667 292.587L923.703 293.547C919.906 299.135 880.474 331.483 873.881 335.193C872.085 335.797 870.889 336.435 869.068 336.058C867.264 333.754 871.408 329.203 873.216 327.64C887.308 315.468 902.317 302.845 916.972 291.402Z"/><path fill="white" d="M843.276 545.117C849.603 544.151 855.515 548.5 856.476 554.828C857.438 561.156 853.085 567.065 846.756 568.022C840.433 568.978 834.532 564.63 833.571 558.308C832.611 551.986 836.954 546.081 843.276 545.117Z"/><path fill="white" d="M685.818 39.8989L686.208 40.3278C688.197 50.8226 690.401 53.7597 697.179 61.6299L696.734 61.8951C689.454 66.1527 687.22 72.1015 684.135 79.6792C680.648 70.0782 678.615 67.081 671.695 59.8606C679.344 52.9724 682.103 49.4942 685.818 39.8989Z"/><path fill="white" d="M706.329 174.28C708.227 174.49 712.234 175.958 711.354 178.051C707.717 186.7 698.718 212.125 693.341 218.26C690.74 217.793 689.663 217.279 688.786 214.831C689.274 209.533 702.903 177.855 706.329 174.28Z"/><path fill="white" d="M829.405 366.043C828.726 368.633 778.398 411.946 773.069 417.323C772.57 417.826 772.001 417.382 771.398 417.153C770.613 415.896 769.803 415.002 769.886 413.586C775.008 408.169 790.026 396.39 796.479 391.365C806.208 383.789 819.309 372.76 829.405 366.043Z"/><path fill="white" d="M774.011 185.243C776.236 185.747 777.592 185.893 778.016 188.279C776.53 191.853 760.263 218.327 757.701 221.251C755.797 220.958 755.3 220.447 754.313 219.103C754.221 214.814 770.788 189.309 774.011 185.243Z"/><path fill="white" d="M900.125 101.307C901.798 107.531 903.028 111.807 907.27 116.76C902.489 120.788 901.413 123.467 897.819 126.732L897.184 126.313C894.49 123.454 891.816 121.442 888.47 119.443C893.756 112.615 896.125 108.758 900.125 101.307Z"/><path fill="white" d="M928.672 53.4473C939.931 54.0472 933.918 66.2853 927.425 70.5138C916.739 70.0458 921.899 57.6952 928.672 53.4473Z"/><path fill="#C292E0" d="M0 0L152.083 0L163.388 0L172.661 0L191.937 0L247.659 0L252.408 0L369.521 0L376.968 0L509.972 0C510.162 13.2357 510.659 26.1053 510.521 39.3849C510.476 43.7538 510.302 61.289 510.934 64.5887L511.138 65.0859C519.746 68.6882 516.208 75.9268 516.997 83.9908C517.438 88.5004 516.952 94.5753 516.295 99.0445C515.884 100.81 513.075 102.119 511.57 102.533C510.376 105.878 510.034 151.811 509.856 158.279L507.037 240.378C506.354 259.151 506.022 278.121 504.524 296.835C489.425 297.136 474.379 298.735 459.554 301.615C456.903 302.129 445.024 305.137 443.575 304.71L443.345 304.472C442.093 305.795 440.53 305.827 438.661 306.201C421.774 310.852 406.091 316.006 390.062 323.172C387.844 319.237 386.075 314.84 384.193 310.71C375.326 291.245 365.402 272.232 355.686 253.177C352.144 246.231 348.056 236.271 343.634 230.217C356.183 262.681 366.191 294.933 378.92 327.683C366.488 333.816 354.766 341.344 343.232 349.005C341.501 350.154 338.119 352.794 336.306 353.306C334.713 354.614 332.8 356.278 331.149 357.445C318.143 367.598 307.651 376.535 295.885 388.202C285.783 377.908 276.271 366.934 266.139 356.597C240.487 330.427 213.982 305.081 188.457 278.788C183.125 273.295 175.647 265.996 171.346 259.734L170.551 260.315C168.84 258.438 165.885 254.675 165.004 252.36C168.967 245.321 153.483 228.435 147.316 226.614L146.782 226.576C144.868 224.968 143.359 222.933 141.728 221.051C133.319 211.342 125.243 201.346 116.782 191.683C77.3903 145.979 38.4609 99.8778 9.09495e-13 53.3876L0 46.2313L0 0Z"/><path fill="white" d="M152.083 0L163.388 0C160.468 15.6381 176.234 15.1588 172.604 35.3408C171.663 42.4101 170.974 46.4257 172.7 53.4046C175.827 56.5803 177.669 59.7552 180.375 62.9454C185.219 68.6557 191.682 77.3926 196.974 82.5125L195.451 83.5169C199.871 88.1607 199.938 89.2746 202.245 95.3484C211.194 102.657 213.323 107.862 219.062 117.781C220.122 119.612 222.454 123.349 222.815 125.25C230.873 134.291 225.799 140.955 228.675 151.687C230.714 159.295 238.211 169.253 235.591 176.829C230.166 193.052 246.378 203.222 259.3 207.829C261.16 208.492 265.322 210.192 266.736 211.432C272.52 226.876 275.534 243.761 286.351 257.066C289.58 261.67 297.281 265.368 300.277 269.782C302.967 273.744 297.464 280.551 291.754 277.129C271.909 265.234 264.384 239.853 257.61 219.087C241.399 214.302 230.581 207.871 223.899 191.045C221.278 184.444 221.436 177.486 224.406 170.996C216.832 156.63 216.988 151.233 216.65 135.327C203.763 131.112 192.807 123.423 191.706 108.965C190.424 92.1464 191.604 95.2945 179.288 85.7615C158.703 69.8268 158.121 50.9839 161.243 27.1543C155.983 15.2391 151.432 16.9073 152.083 0Z"/><path fill="#4B53B8" d="M202.245 95.3484C211.194 102.657 213.323 107.862 219.062 117.781C220.122 119.612 222.454 123.349 222.815 125.25C218.048 123.054 215.243 122.862 210.493 119.357C202.708 113.611 203.662 104.28 202.245 95.3484Z"/><path fill="#8C48B1" d="M172.7 53.4046C175.827 56.5803 177.669 59.7552 180.375 62.9454C185.219 68.6557 191.682 77.3926 196.974 82.5125L195.451 83.5169C186.051 75.6236 174.581 66.909 172.7 53.4046Z"/><path fill="#4B53B8" d="M163.388 0L172.661 0L191.937 0C196.291 1.96546 202.504 4.6098 206.213 7.49037C224.854 21.9669 229.893 52.0668 220.101 72.8966C219.306 74.5876 218.457 76.2528 217.556 77.8894C227.849 86.0773 234.832 97.2341 236.492 110.321C238.355 125.012 225.575 124.303 223.757 110.833C222.536 101.789 214.435 93.6143 209.446 85.8554C206.866 84.6318 205.913 84.1935 203.545 82.5054C200.569 82.2273 199.592 82.7922 196.974 82.5125C191.682 77.3926 185.219 68.6557 180.375 62.9454C177.669 59.7552 175.827 56.5803 172.7 53.4046C170.974 46.4257 171.663 42.4101 172.604 35.3408C176.234 15.1588 160.468 15.6381 163.388 0Z"/><path fill="#C292E0" d="M163.388 0L172.661 0C191.335 16.4688 210.041 13.1632 212.626 47.0074C213.28 55.5678 211.38 66.2637 205.611 72.9786C202.067 67.7815 197.781 61.6691 193.371 57.2252C185.834 49.6321 178.909 44.2292 172.604 35.3408C176.234 15.1588 160.468 15.6381 163.388 0Z"/><path fill="#4B53B8" d="M235.591 176.829C237.576 179.166 238.695 182.013 240.461 184.066C247.665 192.436 258.309 195.873 268.519 198.941C289.416 205.417 297.22 219.376 306.469 237.643C310.818 246.13 314.947 254.727 318.854 263.426C321.89 270.15 330.837 287.524 330.056 293.584C329.763 295.859 328.781 298.168 326.863 299.539C325.758 300.329 324.58 300.544 323.257 300.242C320.81 299.684 318.87 296.922 317.808 294.841C307.838 275.313 294.762 234.838 280.754 220.517C276.713 216.385 271.869 213.956 266.736 211.432C265.322 210.192 261.16 208.492 259.3 207.829C246.378 203.222 230.166 193.052 235.591 176.829Z"/><path fill="white" d="M0 46.2313C10.7087 57.2596 146.686 224.078 146.782 226.576C144.868 224.968 143.359 222.933 141.728 221.051C133.319 211.342 125.243 201.346 116.782 191.683C77.3903 145.979 38.4609 99.8778 9.09495e-13 53.3876L0 46.2313Z"/><path fill="#FAF6FD" d="M412.362 179.906C424.307 215.504 436.175 267.322 443.345 304.472C442.093 305.795 440.53 305.827 438.661 306.201C435.755 298.988 430.9 278.812 429.049 270.897C424.355 250.707 420.3 230.374 416.891 209.927C415.29 200.527 413.141 189.235 412.362 179.906Z"/><path fill="white" d="M374.51 16.1844C374.883 14.6094 374.753 13.6619 375.747 13.0275C376.522 14.1672 377.307 15.4943 378.262 16.4356C383.532 18.9558 392.396 73.2021 393.368 81.8449C393.545 83.4213 390.94 86.0804 388.064 85.2556C386.226 83.5445 385.103 81.163 384.657 78.6511C381.173 59.038 375.559 39.6546 373.452 19.8284C373.305 18.4414 373.838 17.3464 374.51 16.1844Z"/><path fill="#4B53B8" d="M511.138 65.0859C519.746 68.6882 516.208 75.9268 516.997 83.9908C517.438 88.5004 516.952 94.5753 516.295 99.0445C515.884 100.81 513.075 102.119 511.57 102.533C511.014 102.391 510.459 102.241 509.906 102.086C507.159 101.321 504.402 99.9223 504.279 96.5874C503.953 87.7432 503.078 77.2735 504.723 68.6205C505.106 66.6083 509.534 65.4333 511.138 65.0859Z"/><path fill="white" d="M247.659 0L252.408 0C259.638 16.2506 265.94 36.7471 272.422 53.496C278.489 69.1709 284.406 83.7812 289.309 99.9122C284.513 92.8261 279.661 80.2338 276.176 72.0639C266.151 48.2512 256.643 24.2243 247.659 0Z"/><path fill="#FAF6FD" d="M331.149 357.445C330.469 355.717 328.616 352.456 327.556 350.912C317.43 336.155 309.48 320.189 300.126 304.962C298.201 301.828 296.23 298.602 294.543 295.333C296.994 296.383 332.711 347.989 336.306 353.306C334.713 354.614 332.8 356.278 331.149 357.445Z"/><path fill="#4B53B8" d="M369.521 0L376.968 0C377.404 3.35109 378.821 13.5785 378.262 16.4356C377.307 15.4943 376.522 14.1672 375.747 13.0275C374.753 13.6619 374.883 14.6094 374.51 16.1844C372.486 9.20592 370.985 9.00964 369.521 0Z"/><path fill="#C292E0" d="M165.004 252.36C167.824 254.351 169.35 256.915 171.346 259.734L170.551 260.315C168.84 258.438 165.885 254.675 165.004 252.36Z"/><path fill="#4B53B8" d="M395.017 102.02C395.839 102.038 396.684 102.049 397.498 102.182C399.042 102.434 400.428 103.272 401.232 104.642C403.726 108.896 413.803 154.86 412.57 159.219C411.914 161.537 410.09 162.651 408.096 163.737C407.538 163.675 407.611 163.695 406.953 163.555C405.125 163.165 402.908 162.182 401.965 160.467C399.762 156.461 389.575 107.931 390.475 105.802C391.359 103.707 393.103 102.98 395.017 102.02Z"/><path fill="white" d="M446.118 78.335C447.216 79.3679 449.282 88.7312 450.443 91.4681C451.76 94.5902 453.587 97.4714 455.85 99.9935C458.008 102.431 460.733 104.312 463.36 106.234C450.068 114.115 450.765 122.303 446.948 135.858C444.449 136.189 443.477 126.654 442.81 124.195C440.417 115.381 437.359 111.453 430.217 106.41C442.541 98.0476 441.816 91.3403 446.118 78.335Z"/><path fill="white" d="M99.7454 67.7714C101.256 68.8966 102.157 73.6759 104.628 76.5511C108.148 80.6458 109.547 81.2586 114.046 84.3193C107.26 90.5389 107.021 91.0576 104.806 100.414C104.428 102.013 104.099 103.719 103.218 105.122C98.0367 95.7839 95.951 91.9006 87.6249 85.4125C96.0651 78.4897 95.9328 77.9495 99.7454 67.7714Z"/><path fill="#4B53B8" d="M295.171 114.003C296.862 113.96 299.464 113.866 300.981 115.494C305.669 120.527 309.923 133.622 310.94 140.406C311.205 142.173 308.437 144.279 307.231 145.265C304.19 145.959 301.402 145.825 299.965 142.7C296.601 135.383 293.75 127.429 290.937 119.887L291.286 119.265C292.793 116.538 292.933 116.201 295.171 114.003Z"/><path fill="white" d="M374.345 177.341C375.458 178.587 375.638 179.628 376.271 181.183C379.226 188.449 380.045 189.802 386.21 194.261C378.004 202.085 377.624 203.632 374.698 214.086L374.028 213.351C370.833 204.32 367.678 200.943 359.712 196.244C367.804 189.432 370.092 187.079 374.345 177.341Z"/><path fill="white" d="M318.507 166.818C325.591 166.846 327.522 177.586 329.911 183.674C332.125 189.318 337.653 199.339 331.701 203.159C330.455 203.122 328.557 203.147 327.875 202.174C324.758 197.732 316.03 174.831 315.777 170.655C316.37 168.66 316.955 168.344 318.507 166.818Z"/><path fill="white" d="M455.304 4.41886C455.484 4.67318 455.987 5.88647 456.105 6.22444C457.856 11.231 461.401 14.0991 465.262 17.4863C459.967 24.2612 458.658 25.3727 456.678 34.2056L456.279 34.3697C452.236 24.2972 453.251 27.1157 447.002 18.3015C452.335 13.5205 454.246 11.6023 455.304 4.41886Z"/><path fill="white" d="M360.164 115.379C360.705 115.993 360.55 115.692 360.796 116.436C362.615 121.946 364.724 125.348 368.621 129.532C363.232 135.274 362.886 138.736 359.722 145.13L359.583 144.675L359.344 143.92C357.306 137.313 355.265 134.647 350.579 129.815C356.302 125.377 358.328 122.235 360.164 115.379Z"/><defs><linearGradient id="gradient_2" gradientUnits="userSpaceOnUse" x1="-94.972237" y1="214.6333" x2="288.18484" y2="449.12701"><stop offset="0" stop-color="#9370BD"/><stop offset="1" stop-color="#B196CD"/></linearGradient></defs><path fill="url(#gradient_2)" d="M9.09495e-13 53.3876C38.4609 99.8778 77.3903 145.979 116.782 191.683C125.243 201.346 133.319 211.342 141.728 221.051C143.359 222.933 144.868 224.968 146.782 226.576L147.316 226.614C153.483 228.435 168.967 245.321 165.004 252.36C165.885 254.675 168.84 258.438 170.551 260.315C179.353 271.513 188.914 281.621 197.852 292.944C220.475 321.604 242.66 350.736 267.131 377.849C273.309 384.693 279.411 392.652 285.785 399.186C271.499 413.635 257.87 434.435 247.13 451.747C244.284 456.335 240.995 463.669 238.461 467.365C237.517 470.017 236.627 471.496 235.285 473.941C228.071 486.95 222.783 500.515 218.389 514.722C185.435 505.298 150.761 498.978 117.522 490.415C115.885 489.994 111.951 489.274 110.545 488.716L109.889 488.969C113.221 489.794 119.366 492.023 122.792 493.169C132.525 496.455 142.232 499.818 151.912 503.258L215.24 524.83C210.025 543.586 205.046 569.542 204.383 589.009C188.102 588.809 174.058 588.036 158.345 583.964C118.532 574.484 111.182 535.056 100.561 501.019C84.2241 448.669 56.4066 402.852 0 386.625L0 329.539L0 323.083L0 280.681L0 264.352L0 192.318L0 179.717L0 148.918L0 136.847L0 53.3876L9.09495e-13 53.3876Z"/><path fill="white" d="M0 179.717C13.6579 183.243 25.4786 187.235 33.4907 199.862C40.7918 211.369 37.2706 223.569 46.684 232.814C54.6357 240.624 68.3387 241.702 78.4336 245.534C94.0816 251.473 110.381 268.781 113.061 285.633C113.399 287.763 113.123 291.365 112.967 293.629C126.55 307.009 143.309 318.685 157.478 331.533C161.327 335.023 159.202 344.997 152.529 339.978C138.36 328.713 124.414 316.981 110.406 305.497C107.569 303.165 102.679 298.354 102.671 294.214C104 283.268 98.0906 275.151 91.3631 267.261C78.8731 251.904 56.98 254.315 41.8066 243.708C17.6028 224.75 41.233 200.893 0 192.318L0 179.717Z"/><path fill="#4B53B8" d="M0 136.847C27.7458 140.523 50.3989 158.777 59.6209 185.251C62.788 194.343 60.1729 204.443 68.8076 210.134C70.0782 210.976 76.1309 215.519 77.0254 215.903C81.819 217.958 88.0799 226.281 81.7523 229.492C74.6648 233.089 55.8074 216.303 52.9765 209.866C50.5296 204.303 50.4578 197.831 49.0694 191.928C42.4219 168.82 23.1059 153.077 0 148.918L0 136.847Z"/><path fill="#4B53B8" d="M191.078 447.329C186.069 450.461 184.351 448.948 179.603 445.954C168.674 439.02 157.802 432.66 146.532 426.238C137.824 421.276 142.535 413.027 150.626 414.165C152.106 414.374 158.874 418.702 160.457 419.732C169.811 425.821 179.795 431.026 189.097 437.18C192.587 439.487 193.363 441.906 191.999 445.723L191.078 447.329Z"/><path fill="white" d="M0 323.083C10.7519 329.635 89.393 375.057 90.9965 379.315C90.3234 380.595 90.7156 380.335 88.9861 380.942C88.226 381.208 86.4176 380.875 85.6878 380.468C75.1429 374.575 64.5769 368.303 54.2019 362.141C36.0649 351.39 17.9972 340.523 0 329.539L0 323.083Z"/><path fill="#4B53B8" d="M147.316 226.614C153.483 228.435 168.967 245.321 165.004 252.36C158.296 259.301 153.508 249.607 149.129 244.883C144.643 240.042 136.431 229.647 147.316 226.614Z"/><path fill="#FAF6FD" d="M191.999 445.723C207.696 453.276 222.538 459.317 238.461 467.365C237.517 470.017 236.627 471.496 235.285 473.941C227.023 469.418 197.445 453.104 191.078 447.329L191.999 445.723Z"/><path fill="white" d="M0 264.352C3.7813 268.047 11.5107 274.699 11.2049 280.314C11.1413 281.532 10.455 282.632 9.38872 283.224C5.9883 285.113 2.46336 282.783 0 280.681L0 264.352Z"/><path fill="#C292E0" d="M109.889 488.969C107.932 488.481 106.468 488.313 104.906 487.107C106.741 486.693 108.871 487.86 110.545 488.716L109.889 488.969Z"/><path fill="#FAF6FD" d="M176.71 546.317C182.359 545.339 187.773 548.991 188.983 554.595C190.192 560.199 186.766 565.759 181.216 567.198C177.418 568.182 173.386 567.007 170.711 564.135C168.037 561.264 167.151 557.158 168.403 553.44C169.655 549.721 172.844 546.987 176.71 546.317Z"/><path fill="#4B53B8" d="M103.649 382.942C107.827 382.921 110.863 385.6 114.145 388.039C119.805 392.245 132.178 400.875 120.853 406.771C116.852 406.243 115.229 404.846 112.03 402.517C105.455 397.73 91.707 390.769 103.649 382.942Z"/><path fill="#FAF6FD" d="M208.879 377.95C210.395 378.63 217.4 383.562 218.669 384.631C225.034 389.996 254.127 409.217 254.06 417.247C253.634 417.325 253.391 417.388 252.934 417.372C248.344 417.204 214.307 383.365 208.879 377.95Z"/><path fill="#E8D9F5" d="M0 445.907C35.5725 458.482 57.0801 492.81 64.7073 528.738C69.8752 553.08 67.1729 592.502 96.2612 602.466C128.829 612.707 159.616 597.838 192.898 611.679C235.084 629.223 232.837 672.17 262.692 695.36C283.314 711.378 326.247 696.387 347.947 710.013C354.856 714.352 360.069 721.396 365.763 727.03C322.793 728.047 277.739 727.101 234.609 727.022L173.48 727.041C162.512 727.053 150.241 727.332 139.357 726.913L0 726.718L0 573.922L0 445.907Z"/><path fill="#9291DF" d="M0 573.922C25.422 593.18 38.9674 625.872 65.2255 641.829C89.5241 656.595 121.972 641.445 147.409 661.679C169.62 679.348 179.13 708.806 200.526 726.742C187.215 726.565 173.903 726.516 160.591 726.593C155.572 726.603 143.92 726.375 139.357 726.913L0 726.718L0 573.922Z"/><path fill="#E8D9F5" d="M1024 446.717L1024 571.888L1024 726.489L886.996 726.501C867.178 726.51 846.738 726.876 827.009 726.692C822.091 726.384 813.184 726.698 808.008 726.705L768.57 726.718C734.304 726.673 699.086 726.039 664.884 726.665L664.163 725.976C664.41 724.422 664.566 723.98 665.405 722.59C683.663 692.338 719.397 708.134 747.073 701.284C772.978 694.873 780.021 667.367 791.93 646.761C810.443 613.205 845.712 603.056 882.007 605.349C897.643 606.337 928.999 609.083 940.593 595.474C954.234 579.461 953.959 549.928 958.297 529.496C961.005 516.305 965.863 503.65 972.678 492.035C983.549 473.146 1002.3 452.556 1024 446.717Z"/><path fill="#9291DF" d="M1024 571.888L1024 726.489L886.996 726.501C867.178 726.51 846.738 726.876 827.009 726.692C848.267 706.786 850.175 683.672 874.224 664.105C903.569 640.227 930.405 657.216 958.428 641.706C975.764 632.111 994.315 601.58 1007.71 586.653C1013.21 580.515 1017.64 577.051 1024 571.888Z"/></svg>